<svg id="SvgjsSvg1087" width="24" height="24" xmlns="http://www.w3.org/2000/svg" version="1.1" xmlns:xlink="http://www.w3.org/1999/xlink" xmlns:svgjs="http://svgjs.com/svgjs"><defs id="SvgjsDefs1088"></defs><g id="SvgjsG1089"><svg xmlns="http://www.w3.org/2000/svg" enable-background="new 0 0 512 512" viewBox="0 0 512 512" width="24" height="24"><circle cx="256" cy="256" r="251" fill="#ffc96f" class="colorffc96f svgShape"></circle><path fill="#ffb234" d="M507,256c0,138.6-112.4,251-251,251c55.2,0,100-112.4,100-251S311.2,5,256,5
			C394.6,5,507,117.4,507,256z" class="colorffb234 svgShape"></path><path fill="#ef8039" d="M357.8,485.5C326.7,499.3,292.2,507,256,507c-60.2,0-115.5-21.2-158.8-56.6
			c45.2,0,71.4-18.6,108.7-18.6C243.1,431.9,309.7,485.5,357.8,485.5z" class="coloref8039 svgShape"></path><path fill="#e36415" d="M506.8,246.3c-38.2,0-129.2,5.7-129.2-21.5c0-27.3,63.9-55.5,113.9-55.5
			C500.5,193.4,505.8,219.3,506.8,246.3z" class="colore36415 svgShape"></path><path fill="#ef8039" d="M273.9 355c0 22.4 137.5 55.1 180.2 55.1-10.3 13.2-21.8 25.3-34.5 36.2-151.6 0-168.6-77.5-217.5-77.5-48.9 0-97.7 38.6-146.4 38.6-10.6-14-19.8-29.1-27.3-45.2 39.9 13.6 108.2-3.1 108.2-17.9 0-14.8-74.1-39.5-126.9-39.5C6.6 289 5 272.7 5 256c68.6 0 146.5 38.3 236.9 38.3 90.4 0 190.9-25.2 253.5 37.4-2.5 7.9-5.4 15.7-8.7 23.3C425.9 325.2 273.9 332.6 273.9 355zM472.8 129.5c-59.4 0-167.6 95.3-248.4 95.3-80.8 0-141.3-23.1-213.5-23.1C24 142.5 58 91.1 104.8 55.7c84.2 0 122.1 50 186.8 50 64.7 0 103.5-29.7 139.3-29.7h0C447.2 92 461.3 109.8 472.8 129.5zM382.3 39c-41.1 0-120.4 13.9-126.3 0-5.8-13.7 56.3-27.1 57.6-27.4C338.1 17.4 361.1 26.7 382.3 39z" class="coloref8039 svgShape"></path><path fill="#e36415" d="M306.8 472.2C291.9 494.3 274.5 507 256 507c36.2 0 70.7-7.7 101.8-21.5C342.2 485.5 324.7 479.8 306.8 472.2zM454.1 410.1c-22.7 0-72-9.2-113.3-21.2-4 16.2-8.8 31.2-14.2 44.7 24 7.6 54 12.7 93 12.7C432.3 435.4 443.9 423.3 454.1 410.1zM355.1 289.4c-.8 15.9-2.3 31.4-4.3 46.2 47-1.6 103.9 3.8 135.8 19.4 3.3-7.6 6.2-15.3 8.7-23.3C458.5 294.9 408.5 288.4 355.1 289.4zM430.9 76L430.9 76c-27 0-55.8 16.9-96.1 25.2 7.3 23.3 12.9 49.9 16.6 78.8 46.5-24.7 90.6-50.5 121.5-50.5C461.3 109.8 447.2 92 430.9 76zM288.2 18.3c7.6 6.4 14.7 15.1 21.3 25.7 24.9-1.8 53.2-4.9 72.7-4.9-21.1-12.3-44.2-21.7-68.6-27.4C313 11.8 301.1 14.3 288.2 18.3z" class="colore36415 svgShape"></path><path fill="#ffc96f" d="M175.4,191.5c-34.9,0-76.4-10-90.6-26.8c-5.7-6.7-7.1-14.3-4-21.9
				c4.2-10.3,11.3-17.1,21.1-20.2c27-8.5,66.2,14.3,81.8,24.5l-5.5,8.4c-11.2-7.3-49.7-30.7-73.3-23.3c-6.9,2.2-11.8,6.9-14.8,14.4
				c-1.7,4.1-0.9,7.8,2.3,11.7c15.9,18.8,76.9,27.9,109.2,20.8c10.8-2.4,17.5-6.3,18.8-11.1c1.6-5.9,0.2-11.8-4.3-18.2
				c-20-28.1-94.2-53.1-147.1-56.6l0.7-10c47.8,3.2,130.3,26.6,154.6,60.8c6.3,8.8,8.2,17.8,5.8,26.6c-2.4,8.8-11.3,14.9-26.3,18.2
				C195.5,190.6,185.7,191.5,175.4,191.5z" class="colorffc96f svgShape"></path></svg></g></svg>