<svg id="SvgjsSvg1067" width="24" height="24" xmlns="http://www.w3.org/2000/svg" version="1.1" xmlns:xlink="http://www.w3.org/1999/xlink" xmlns:svgjs="http://svgjs.com/svgjs"><defs id="SvgjsDefs1068"></defs><g id="SvgjsG1069"><svg xmlns="http://www.w3.org/2000/svg" enable-background="new 0 0 512 512" viewBox="0 0 512 512" width="24" height="24"><circle cx="256" cy="256" r="175" fill="#e36415" class="colore36415 svgShape"></circle><path fill="#b24e10" d="M431,256c0,96.6-78.4,175-175,175c38.5,0,69.7-78.4,69.7-175S294.5,81,256,81
			C352.6,81,431,159.3,431,256z" class="colorb24e10 svgShape"></path><path fill="#ffc96f" d="M428.6,227.2c-25.8,35.3-57.3,72.1-93.3,108.1s-72.8,67.5-108.2,93.3
			C133.4,497.1,49.8,525.9,17.9,494c-31.8-31.8-3.1-115.5,65.4-209.3c2.3,13.6,6.1,26.7,11.3,39C65,375.5,55.9,418.3,74.8,437.2
			c18.9,18.9,61.7,9.8,113.4-19.8c39.7-22.7,84.7-57.5,128.2-101c43.5-43.5,78.3-88.5,101-128.2c29.6-51.7,38.7-94.5,19.8-113.4
			c-18.9-18.9-61.7-9.8-113.4,19.8c-12.4-5.2-25.4-9-39-11.3C378.6,14.9,462.2-13.9,494,17.9C525.9,49.8,497.1,133.4,428.6,227.2z" class="colorffc96f svgShape"></path><path fill="#ffb234" d="M325.9,325.9C210.1,441.6,84.9,504.2,46.4,465.6c-25.4-25.4-7-88.2,41.4-161.1
			c1.9,6.6,4.2,13,6.8,19.3C65,375.5,55.9,418.3,74.8,437.2c18.9,18.9,61.7,9.8,113.4-19.8c39.7-22.7,84.7-57.5,128.2-101
			c43.5-43.5,78.3-88.5,101-128.2c29.6-51.7,38.7-94.5,19.8-113.4c-18.9-18.9-61.7-9.8-113.4,19.8c-6.3-2.6-12.7-4.9-19.3-6.8
			C377.5,39.3,440.2,21,465.6,46.4C504.2,84.9,441.6,210.1,325.9,325.9z" class="colorffb234 svgShape"></path><path fill="#cde9fe" d="M458.1,159.4c27.4-54.9,31.4-96.3,11.1-116.6c-20.3-20.3-61.7-16.4-116.6,11.1
			C335,62.6,316.7,73.5,298,86.1c4.3,1.1,8.5,2.3,12.6,3.6c15.9-10.4,31.4-19.4,46.4-26.9C387.3,47.7,413.3,40,432.8,40
			c12.7,0,22.7,3.3,29.3,9.9c16.8,16.8,12.1,55.1-12.9,105C423,207.3,378,266.7,322.3,322.3C266.7,378,207.3,423,154.9,449.2
			c-50,25-88.3,29.7-105,12.9C33.1,445.3,37.8,407,62.8,357c7.5-15,16.5-30.5,26.9-46.4c-1.4-4.1-2.6-8.3-3.6-12.6
			c-12.6,18.7-23.4,37-32.2,54.5c-27.4,54.9-31.4,96.3-11.1,116.6c8.6,8.6,20.9,12.8,36.4,12.8c21.2,0,48.5-8,80.2-23.9
			c53.3-26.6,113.6-72.3,170-128.7C385.8,273,431.5,212.7,458.1,159.4z" class="colorcde9fe svgShape"></path></svg></g></svg>