<svg id="SvgjsSvg1076" width="24" height="24" xmlns="http://www.w3.org/2000/svg" version="1.1" xmlns:xlink="http://www.w3.org/1999/xlink" xmlns:svgjs="http://svgjs.com/svgjs"><defs id="SvgjsDefs1077"></defs><g id="SvgjsG1078"><svg xmlns="http://www.w3.org/2000/svg" enable-background="new 0 0 512 512" viewBox="0 0 512 512" width="24" height="24"><path fill="#ffdca4" d="M279,25l16.7-20l9.7,24.2c7,17.4,28,24.2,43.8,14.2l22.1-13.9l1.7,26
			c1.2,18.7,19.1,31.7,37.3,27.1l25.3-6.4l-6.4,25.3c-4.6,18.2,8.4,36,27.1,37.3l26,1.7l-13.9,22.1c-10,15.9-3.1,36.9,14.2,43.8
			l24.2,9.7L487,233c-14.4,12-14.4,34.1,0,46.1l20,16.7l-24.2,9.7c-17.4,7-24.2,28-14.2,43.8l13.9,22.1l-26,1.7
			c-18.7,1.2-31.7,19.1-27.1,37.3l6.4,25.3l-25.3-6.4c-18.2-4.6-36,8.4-37.3,27.1l-1.7,26l-22.1-13.9c-15.9-10-36.9-3.1-43.8,14.2
			l-9.7,24.2L279,487c-12-14.4-34.1-14.4-46.1,0l-16.7,20l-9.7-24.2c-7-17.4-28-24.2-43.8-14.2l-22.1,13.9l-1.7-26
			c-1.2-18.7-19.1-31.7-37.3-27.1l-25.3,6.4l6.4-25.3c4.6-18.2-8.4-36-27.1-37.3l-26-1.7l13.9-22.1c10-15.9,3.1-36.9-14.2-43.8
			L5,295.8L25,279c14.4-12,14.4-34.1,0-46.1L5,216.2l24.2-9.7c17.4-7,24.2-28,14.2-43.8l-13.9-22.1l26-1.7
			c18.7-1.2,31.7-19.1,27.1-37.3l-6.4-25.3l25.3,6.4c18.2,4.6,36-8.4,37.3-27.1l1.7-26l22.1,13.9c15.9,10,36.9,3.1,43.8-14.2
			L216.2,5L233,25C244.9,39.4,267.1,39.4,279,25z" class="colorffdca4 svgShape"></path><circle cx="256" cy="256" r="175" fill="#ffb234" class="colorffb234 svgShape"></circle><path fill="#ffc96f" d="M81,256c0-96.6,78.4-175,175-175c-38.5,0-69.7,78.4-69.7,175s31.2,175,69.7,175
			C159.4,431,81,352.6,81,256z" class="colorffc96f svgShape"></path><rect width="10" height="30" x="331" y="156" fill="#ffdca4" class="colorffdca4 svgShape"></rect><rect width="30" height="10" x="321" y="166" fill="#ffdca4" class="colorffdca4 svgShape"></rect><rect width="10" height="30" x="191" y="326" fill="#ffdca4" class="colorffdca4 svgShape"></rect><rect width="30" height="10" x="181" y="336" fill="#ffdca4" class="colorffdca4 svgShape"></rect></svg></g></svg>