<svg id="SvgjsSvg1001" width="24" height="24" xmlns="http://www.w3.org/2000/svg" version="1.1" xmlns:xlink="http://www.w3.org/1999/xlink" xmlns:svgjs="http://svgjs.com/svgjs"><defs id="SvgjsDefs1002"></defs><g id="SvgjsG1008"><svg xmlns="http://www.w3.org/2000/svg" enable-background="new 0 0 512 512" viewBox="0 0 512 512" width="24" height="24"><circle cx="256" cy="256" r="251" fill="#e36415" class="colore36415 svgShape"></circle><path fill="#b24e10" d="M507,256c0,138.6-112.4,251-251,251c55.2,0,100-112.4,100-251S311.2,5,256,5
			C394.6,5,507,117.4,507,256z" class="colorb24e10 svgShape"></path><path fill="#cde9fe" d="M507,256c0,48.4-13.7,93.6-37.5,132C409,370.3,372,455.2,316,455.2s-89.1-63.3-127.2-65.2
			c-38.1-1.9-142.8,3.5-142.8,3.5C20.1,354,5,306.8,5,256c0-31.9,6-62.4,16.8-90.5c65.9,0,155.2-26.1,234.2-26.1
			s153.8,26.1,234.2,26.1C501,193.6,507,224.1,507,256z" class="colorcde9fe svgShape"></path><path fill="#9cd3fc" d="M346.3,148.1c6.2,32.7,9.7,69.3,9.7,107.9c0,81.1-15.3,153.3-39.1,199.2
			c55.6-0.9,92.5-84.7,152.7-67.2c23.8-38.4,37.5-83.6,37.5-132c0-31.9-6-62.4-16.8-90.5C440.8,165.5,393.7,155.7,346.3,148.1z" class="color9cd3fc svgShape"></path><path fill="#cde9fe" d="M324 497.7c-21.6 6.1-44.4 9.3-68 9.3-57 0-109.6-19-151.7-51C162.9 412.5 208.2 520.1 324 497.7zM368.3 31.5c-.9.2-54.1 12.6-112.3 12.6S144.6 31.6 143.7 31.5C177.5 14.5 215.6 5 256 5S334.5 14.5 368.3 31.5z" class="colorcde9fe svgShape"></path><path fill="#9cd3fc" d="M307.7,41.2c34.6-3.7,59.9-9.6,60.5-9.7C336.6,15.6,301.2,6.2,263.6,5.1c-0.1,0-0.1,0-0.2,0
			C261,5,258.5,5,256,5C274.9,5,292.6,18.2,307.7,41.2z" class="color9cd3fc svgShape"></path><path fill="#ffc96f" d="M500.4,313.4c-6.3,26.8-16.8,51.9-30.9,74.6C409,370.3,372,455.2,316,455.2
			s-89.1-63.3-127.2-65.2c-38.1-1.9-142.8,3.5-142.8,3.5c-18.6-28.3-31.6-60.7-37.5-95.4c1.3,0.1,127.5,8.9,181.9-0.2
			c54.7-9.1,57.9-59.9,125.5-59.9S393.7,334.8,500.4,313.4z" class="colorffc96f svgShape"></path><path fill="#ffb234" d="M356,251.1c0,1.6,0,3.2,0,4.9c0,81.1-15.3,153.3-39.1,199.2c55.6-0.9,92.5-84.7,152.7-67.2
			c14.1-22.7,24.6-47.8,30.9-74.6C418.7,329.8,393.6,276.8,356,251.1z" class="colorffb234 svgShape"></path><path fill="#ffc96f" d="M504.8,222.3c-92.9,0-141.8-36.5-248.8-36.5S89,222.3,7.3,222.3c4.8-35.7,17.1-69,35.2-98.3
			c115.6,0,140-30,212.2-30s132.1,30,214.9,30C487.7,153.3,500,186.6,504.8,222.3z" class="colorffc96f svgShape"></path><path fill="#ffb234" d="M335.6,104.1c8.2,27,14.2,58.3,17.5,92.3c50.4,10.8,91.9,25.8,151.6,25.8
			c-4.8-35.7-17.1-69-35.2-98.3C419,124,377.1,112.8,335.6,104.1z" class="colorffb234 svgShape"></path><path fill="#e36415" d="M504.8,222.3c-92.9,0-141.8-36.5-248.8-36.5S89,222.3,7.3,222.3
			c2.6-19.8,7.6-38.8,14.6-56.8c65.9,0,155.2-26.1,234.2-26.1s153.7,26.1,234.2,26.1C497.1,183.5,502.1,202.5,504.8,222.3z" class="colore36415 svgShape"></path><path fill="#b24e10" d="M346.3,148.1c2.9,15.3,5.2,31.5,6.9,48.4c50.4,10.8,91.9,25.8,151.6,25.8
			c-2.6-19.8-7.6-38.8-14.6-56.8C440.8,165.5,393.6,155.7,346.3,148.1z" class="colorb24e10 svgShape"></path><ellipse cx="316" cy="350" fill="#e36415" rx="60" ry="40" class="colore36415 svgShape"></ellipse><path fill="#e36415" d="M318.6,430.7c-41.6,0-62.8-24.4-76.8-40.6c-1.2-1.4-2.4-2.7-3.5-4l7.5-6.7
				c1.2,1.3,2.4,2.7,3.6,4.1c13.6,15.7,32.3,37.1,69.3,37.1c40.9,0,82.5-45.4,82.5-70.7c0-41.4-55.9-67.7-85.1-67.7
				c-23,0-43.9,18.2-68.1,39.2c-8,6.9-16.2,14.1-25.2,21.2c-29.7,23.5-103.4,18.3-157.2,14.6C48.6,356,34,355,23,355v-10
				c11,0,26.1,1,43.2,2.2c52.2,3.7,123.6,8.7,150.2-12.4c8.8-7,17-14.1,24.9-20.9c25.7-22.3,48-41.6,74.7-41.6
				c18.2,0,41.8,8.1,60.1,20.6c22.6,15.5,35,35.8,35,57.1c0,15.6-11.2,35.6-29.3,52.4C362.4,420.4,339.3,430.7,318.6,430.7z" class="colore36415 svgShape"></path></svg></g></svg>