<svg id="SvgjsSvg1024" width="24" height="24" xmlns="http://www.w3.org/2000/svg" version="1.1" xmlns:xlink="http://www.w3.org/1999/xlink" xmlns:svgjs="http://svgjs.com/svgjs"><defs id="SvgjsDefs1025"></defs><g id="SvgjsG1026"><svg xmlns="http://www.w3.org/2000/svg" enable-background="new 0 0 512 512" viewBox="0 0 512 512" width="24" height="24"><circle cx="256" cy="256" r="251" fill="#db3529" class="colordb3529 svgShape"></circle><path fill="#b4271e" d="M507,256c0,138.6-112.4,251-251,251c55.2,0,100-112.4,100-251S311.2,5,256,5
			C394.6,5,507,117.4,507,256z" class="colorb4271e svgShape"></path><path fill="#e25d56" d="M498 322.8c-7.5 27.3-19.5 52.6-35.1 75.3-136.4 69.3-362.6 17.1-436.4-40.2-7.7-17.3-13.5-35.7-17.2-54.9 38.3 31.5 89-45.1 163.7-36.1C272.6 278.9 334.2 407.6 498 322.8zM504.6 221.3c-150.4 98-402.3-107.1-470.5-82.6C45.1 117.9 59 99 75.2 82h0c109.8-40 205.6 95.5 377.4 17.9C479.8 134.2 498.3 175.8 504.6 221.3z" class="colore25d56 svgShape"></path><path fill="#db3529" d="M349.4 345.5c-4.9 32-12.3 60.8-21.6 85 48.6-2.5 95.6-12.4 135.1-32.4 15.6-22.7 27.6-48.1 35.1-75.3C436.6 354.6 389.5 356.4 349.4 345.5zM452.6 99.9c-41.1 18.5-77.8 24.9-111.4 24.4 8.6 34.9 13.9 75.4 14.7 118.9 53.5 9.4 105.3 6.4 148.7-21.9C498.3 175.8 479.8 134.2 452.6 99.9z" class="colordb3529 svgShape"></path><ellipse cx="172.1" cy="345.2" fill="#db3529" rx="47.6" ry="30.9" transform="rotate(6.944 172.12 345.206)" class="colordb3529 svgShape"></ellipse><ellipse cx="65.1" cy="223.2" fill="#e25d56" rx="34.4" ry="22.3" transform="rotate(15.825 65.139 223.277)" class="colore25d56 svgShape"></ellipse><ellipse cx="381.1" cy="124.2" fill="#e25d56" rx="34.4" ry="22.3" transform="rotate(-9.683 381.05 124.216)" class="colore25d56 svgShape"></ellipse></svg></g></svg>