<svg id="SvgjsSvg1035" width="24" height="24" xmlns="http://www.w3.org/2000/svg" version="1.1" xmlns:xlink="http://www.w3.org/1999/xlink" xmlns:svgjs="http://svgjs.com/svgjs"><defs id="SvgjsDefs1036"></defs><g id="SvgjsG1037"><svg xmlns="http://www.w3.org/2000/svg" enable-background="new 0 0 512 512" viewBox="0 0 512 512" width="24" height="24"><circle cx="256" cy="256" r="251" fill="#cde9fe" class="colorcde9fe svgShape"></circle><path fill="#9cd3fc" d="M507,256c0,138.6-112.4,251-251,251c55.2,0,100-112.4,100-251S311.2,5,256,5
			C394.6,5,507,117.4,507,256z" class="color9cd3fc svgShape"></path><path fill="#69bdfb" d="M507,256c0,22.5-3,44.2-8.5,65c-38.3,0-45.8-27.8-78.1-27.8c-32.3,0-30.2-46.7,0-43.8
			c30.2,2.9,45.3-50.3,78.8-55.4C504.3,213.8,507,234.6,507,256z" class="color69bdfb svgShape"></path><path fill="#9cd3fc" d="M424.3 442.2C379.8 482.5 320.8 507 256 507c-51.1 0-98.6-15.3-138.2-41.5 32.6-66.2 121.3 15.3 157.6 15.3C311.7 480.9 355.1 442.2 424.3 442.2zM328.1 15.5c-37.1 50.3-134.9 39.9-169 8.9C188.9 11.9 221.6 5 256 5 281.1 5 305.3 8.7 328.1 15.5zM461.9 112.5c-40.1 7.9-19.8 73.4-46.2 73.5-26.4.1-43.7-17.4-76.2-15.3-32.5 2-50.8-49.8-5.1-55.6C380.1 109.3 373 63 400.9 51 424.6 67.8 445.3 88.6 461.9 112.5zM215.4 233.8c-31.5-6.3-34.8-36-68-47.8-33.3-11.7-97.2 33.5-134.7 8 3.8-15 9-29.4 15.4-43.2 79.3 17.2 54.7-30 23.6-40.5 7.3-10.3 15.4-20 24.2-29 53 22.6 49.4 48.1 82.3 56.6 33.8 8.8 67.5-17.2 91.6-8.6C282 140.7 267.8 244.1 215.4 233.8zM387.8 386.1c-38.2 25.8-117.2 34.9-161.2 24.1-44-10.8-72.3-45.6-100.5-49.7C97.9 356.3 93.7 398 45.5 393h0c-20.2-31-33.8-67-38.6-105.6 36.9 14.9 92.6-15.9 124.2-7.6 31.6 8.3 48.2 56.4 98.9 62.3 50.7 5.8 66.5-33 99.7-31.9 33.2 1.2 29.8 40.2 54.8 36.9C409.5 343.7 426.1 360.4 387.8 386.1z" class="color9cd3fc svgShape"></path><path fill="#69bdfb" d="M262.1 506.9c62.3-1.5 119.1-25.7 162.2-64.7-51.3 0-88.5 21.3-119 32.3C290.7 495.2 273.9 507 256 507c2 0 3.9 0 5.9-.1C262 506.9 262 506.9 262.1 506.9zM304.3 36.2c9.3-5.3 17.4-12.1 23.8-20.7-21.3-6.4-43.7-10-66.9-10.5-.3 0-.6 0-.9 0-1.4 0-2.8 0-4.2 0C273.5 5 290 16.3 304.3 36.2zM400.9 51c-27 11.6-21.2 55.4-62.3 63.4 4.7 17.3 8.6 36.2 11.5 56.3 26 1.7 42.2 15.4 65.6 15.3 26.4-.1 6.1-65.6 46.2-73.5C445.3 88.6 424.6 67.8 400.9 51zM384.5 347.1c-16.9 2.3-20.8-14.9-31.8-26.5-3.3 31.7-9.1 60.9-16.8 86.4 20.1-4.8 38.5-11.8 51.9-20.8C426.1 360.4 409.5 343.7 384.5 347.1z" class="color69bdfb svgShape"></path><path fill="#cde9fe" d="M307,350.5c-15.5,9.1-12.1,37.7,9.9,27.5S334.3,334.5,307,350.5z" class="colorcde9fe svgShape"></path><path fill="#9cd3fc" d="M378.8,145.7c16.8,6.3,36.8-14.5,15-25S349.2,134.6,378.8,145.7z" class="color9cd3fc svgShape"></path></svg></g></svg>