<svg viewBox="0 0 35 93" version="1.1" xmlns="http://www.w3.org/2000/svg">
    <g id="Front">
        <g id="head" transform="matrix(1,0,0,1,1.10311,-0.0253349)">
            <path d="M11.672,6.359L11.623,3.768L15.83,1.3L20.258,4.253L20.217,6.197L20.459,2.853L18.428,0.542L15.583,0.025L13.378,0.554L11.442,3.185L11.672,6.359Z" style="fill-rule:nonzero;"/>
        </g>
        <g id="face" transform="matrix(1,0,0,1,1.10311,-0.0253349)">
            <path d="M19.749,6.703L19.769,4.496L15.802,1.732L12.061,3.968L12.055,6.603L11.448,6.643L11.722,8.468L12.698,8.807L13.141,10.988L14.963,13.053L16.998,12.992L18.79,11.048L19.15,8.808L20.126,8.468L20.378,6.684L19.749,6.703Z" style="fill-rule:nonzero;"/>
        </g>
        <g id="neck" transform="matrix(1,0,0,1,1.10311,-0.0253349)">
            <path d="M13.305,11.911L14.954,14.263L15.699,16.884L13.964,15.501L13.097,12.53L13.305,11.911ZM18.385,11.911L16.735,14.263L15.99,16.885L17.725,15.501L18.591,12.53L18.385,11.911Z" style="fill-rule:nonzero;"/>
        </g>
        <g id="shoulder-left" transform="matrix(1,0,0,1,1.10311,-0.0253349)">
            <path d="M19.048,13.248L22.605,15.228L23.332,14.877L19.048,13.248ZM18.941,13.681L18.57,15.412L20.754,15.948L22.155,15.453L18.941,13.681ZM22.922,15.657L23.68,15.247L26.089,16.915L27.262,18.422L27.889,19.985L27.842,23.687L26.514,21.965L26.555,19.372L26.066,18.871C26.066,18.871 22.968,15.68 22.923,15.657L22.922,15.657ZM22.681,15.766C22.68,15.818 26.011,19.313 26.011,19.313L26.112,22.417L24.958,20.439L22.732,19.491L21.166,16.607L22.681,15.766Z" style="fill-rule:nonzero;"/>
        </g>
        <g id="shoulder-right" transform="matrix(1,0,0,1,1.10311,-0.0253349)">
            <path d="M12.625,13.248L9.067,15.228L8.341,14.877L12.625,13.248ZM12.732,13.681L13.103,15.412L10.918,15.948L9.517,15.453L12.732,13.681ZM8.75,15.657L7.992,15.247L5.584,16.915L4.41,18.422L3.784,19.985L3.83,23.687L5.159,21.965L5.118,19.372L5.606,18.871C5.606,18.871 8.704,15.68 8.75,15.657L8.75,15.657ZM8.991,15.766C8.993,15.818 5.661,19.313 5.661,19.313L5.561,22.417L6.715,20.439L8.94,19.491L10.506,16.607L8.991,15.766Z" style="fill-rule:nonzero;"/>
        </g>
        <g id="arm-left" transform="matrix(1,0,0,1,1.10311,-0.0253349)">
            <path d="M27.622,30.815L27.283,32.52L25.464,29.976L24.801,28.707L27.622,30.815ZM24.769,28.205C24.743,28.191 24.715,28.18 24.687,28.173L23.203,23.218L24.208,21.133L25.863,22.879L28.093,29.555L28.135,30.493C27.069,29.651 25.945,28.886 24.77,28.205L24.769,28.205ZM26.463,22.449L28.112,28.883L27.748,23.96L26.463,22.449Z" style="fill-rule:nonzero;"/>
        </g>
        <g id="forearm-left" transform="matrix(1,0,0,1,1.10311,-0.0253349)">
            <path d="M26.955,32.969L28.256,43.258L27.148,43.268L25.255,35.272L25.446,30.735L26.955,32.969ZM28.175,31.019L27.588,33.606L28.707,42.762L29.265,42.545L29.496,35.775L28.175,31.019Z" style="fill-rule:nonzero;"/>
        </g>
        <g id="arm-right" transform="matrix(1,0,0,1,1.10311,-0.0253349)">
            <path d="M4.075,30.815L4.413,32.52L6.232,29.976L6.895,28.707L4.075,30.815ZM6.927,28.205C6.953,28.191 6.981,28.18 7.01,28.173L8.493,23.218L7.489,21.133L5.833,22.879L3.603,29.555L3.562,30.493C4.627,29.651 5.751,28.886 6.926,28.205L6.927,28.205ZM5.233,22.449L3.584,28.883L3.949,23.96L5.233,22.449Z" style="fill-rule:nonzero;"/>
        </g>
        <g id="forearm-right" transform="matrix(1,0,0,1,1.10311,-0.0253349)">
            <path d="M4.575,32.969L3.274,43.258L4.382,43.268L6.276,35.272L6.084,30.735L4.575,32.969ZM3.355,31.019L3.943,33.606L2.824,42.762L2.266,42.545L2.035,35.775L3.355,31.019Z" style="fill-rule:nonzero;"/>
        </g>
        <g id="chest-left" transform="matrix(1,0,0,1,1.10311,-0.0253349)">
            <path d="M20.337,17.085L22.067,20.177L23.96,21.124L22.807,22.031L21.901,24.669L19.802,25.534L16.456,23.879L17.291,17.374L20.337,17.085Z" style="fill-rule:nonzero;"/>
        </g>
        <g id="chest-right" transform="matrix(1,0,0,1,1.10311,-0.0253349)">
            <path d="M11.351,17.085L9.622,20.177L7.728,21.124L8.881,22.031L9.787,24.669L11.887,25.534L15.233,23.879L14.399,17.374L11.351,17.085Z" style="fill-rule:nonzero;"/>
        </g>
        <g id="belly-left" transform="matrix(1,0,0,1,1.10311,-0.0253349)">
            <path d="M19.642,34.708L21.455,33.343L21.613,35.176L22.899,37.55L20.919,40.286L19.888,40.452L19.517,36.564L19.642,34.708Z" style="fill-rule:nonzero;"/>
        </g>
        <g id="ribs-left" transform="matrix(1,0,0,1,1.10311,-0.0253349)">
            <path d="M19.289,26.152L16.177,24.746L16.271,27.026L19.072,28.462L19.289,26.152ZM21.224,27.82L19.93,28.542L20.08,26.833L21.224,27.82ZM20.171,26.183L22.65,25.151L21.717,27.672L20.171,26.183ZM21.702,27.921L20.012,28.954L19.723,31.022L21.373,29.947L21.702,27.921ZM18.791,29.025L18.729,30.649L16.426,30.149L16.301,27.932L18.791,29.025ZM18.635,31.429L18.666,33.428L16.457,34.022L16.426,30.899L18.635,31.429ZM21.29,30.444L19.806,31.478L19.6,33.587L21.248,32.263L21.29,30.444Z" style="fill-rule:nonzero;"/>
        </g>
        <g id="belly-right" transform="matrix(1,0,0,1,1.10311,-0.0253349)">
            <path d="M12.046,34.708L10.233,33.343L10.075,35.176L8.789,37.551L10.77,40.287L11.801,40.452L12.172,36.565L12.046,34.708Z" style="fill-rule:nonzero;"/>
        </g>
        <g id="belly" transform="matrix(1,0,0,1,1.10311,-0.0253349)">
            <path d="M15.636,44.92L15.03,39.008L15.015,35.159L12.83,34.084L12.582,41.114L15.636,44.92ZM16.052,44.919L16.658,39.007L16.674,35.158L18.858,34.083L19.105,41.113L16.052,44.919Z" style="fill-rule:nonzero;"/>
        </g>
        <g id="ribs-right" transform="matrix(1,0,0,1,1.10311,-0.0253349)">
            <path d="M12.399,26.152L15.511,24.746L15.418,27.026L12.616,28.462L12.399,26.152ZM10.464,27.821L11.758,28.542L11.608,26.833L10.464,27.821ZM11.517,26.184L9.038,25.151L9.972,27.673L11.517,26.184ZM9.986,27.921L11.676,28.955L11.964,31.022L10.316,29.947L9.986,27.921ZM12.897,29.025L12.959,30.649L15.263,30.15L15.387,27.933L12.897,29.025ZM13.053,31.43L13.022,33.428L15.232,34.022L15.263,30.899L13.053,31.43ZM10.398,30.445L11.882,31.478L12.088,33.587L10.438,32.264L10.398,30.445Z" style="fill-rule:nonzero;"/>
        </g>
        <g id="thigh-left" transform="matrix(1,0,0,1,1.10311,-0.0253349)">
            <path d="M23.419,50.399L23.264,55.15L20.861,61.76L21.598,63.66L23.962,55.315L23.419,50.399ZM22.837,38.791L22.683,42.798L24.001,50.73L24.62,44.327L22.837,38.791ZM22.45,43.914L19.699,49.986L19.078,54.86L20.241,61.718L22.76,54.737L22.915,47.549L22.45,43.914Z" style="fill-rule:nonzero;"/>
        </g>
        <g id="innerthigh-left" transform="matrix(1,0,0,1,1.10311,-0.0253349)">
            <path d="M22.063,39.37L22.063,43.583L19.117,49.408L17.257,55.192L17.451,51.185L22.063,39.37ZM18.814,52.796L18.749,52.95L17.536,55.852L18.319,63.04L19.555,62.379L18.484,55.686L18.814,52.796Z" style="fill-rule:nonzero;"/>
        </g>
        <g id="feet-left" transform="matrix(1,0,0,1,1.10311,-0.0253349)">
            <path d="M17.256,87.868L17.38,91.321L17.67,92.527L18.541,92.527L18.79,91.695L19.081,91.654L19.019,92.486L20.118,92.152L20.408,91.986L21.653,91.716L21.694,90.738L20.491,88.701L19.661,87.661L17.628,86.829L17.256,87.868Z" style="fill-rule:nonzero;"/>
        </g>
        <g id="calf-left" transform="matrix(1,0,0,1,1.10311,-0.0253349)">
            <path d="M18.251,70.441L18.542,71.356L19.164,75.224L19.247,80.381L18.376,85.414L18.417,78.967L17.505,76.389L17.379,73.56L18.251,70.441ZM20.243,72.77L20.035,80.507L18.376,86.746L20.181,85.893L23.189,75.057L22.152,68.236L20.243,72.77Z" style="fill-rule:nonzero;"/>
        </g>
        <g id="knee-left" transform="matrix(1,0,0,1,1.10311,-0.0253349)">
            <path d="M21.405,64.784L21.529,65.907L20.658,66.989L20.367,68.695L19.786,68.944L19.288,66.366L18.956,65.451L19.247,64.868L21.405,64.784ZM17.546,64.868L18.169,66.614L19.496,69.193L19.164,71.564L18.21,68.902L17.422,67.405L17.546,64.868ZM22.524,62.497L21.57,67.613L22.192,67.28L22.69,68.944L22.524,62.497Z" style="fill-rule:nonzero;"/>
        </g>
        <g id="thigh-right" transform="matrix(1,0,0,1,1.10311,-0.0253349)">
            <path d="M8.269,50.399L8.425,55.15L10.827,61.759L10.091,63.66L7.727,55.315L8.269,50.399ZM8.851,38.791L9.006,42.798L7.688,50.73L7.068,44.327L8.851,38.791ZM9.238,43.914L11.99,49.986L12.61,54.86L11.447,61.718L8.928,54.736L8.773,47.548L9.238,43.914Z" style="fill-rule:nonzero;"/>
        </g>
        <g id="genitalia" transform="matrix(1,0,0,1,1.10311,-0.0253349)">
            <path d="M14.404,45.04L14.427,45.012L14.278,44.633L11.176,41.228L10.943,41.146L13.003,46.466L14.404,45.04ZM13.232,47.058L14.509,50.358L14.935,46.309L14.683,45.666L13.232,47.058ZM17.284,45.04L17.262,45.012L17.411,44.633L20.512,41.229L20.745,41.146L18.686,46.466L17.284,45.04ZM18.457,47.058L17.18,50.358L16.753,46.309L17.005,45.666L18.457,47.058Z" style="fill-rule:nonzero;"/>
        </g>
        <g id="innerthigh-right" transform="matrix(1,0,0,1,1.10311,-0.0253349)">
            <path d="M9.626,39.369L9.626,43.583L12.571,49.408L14.431,55.192L14.238,51.185L9.626,39.369ZM12.875,52.795L12.939,52.95L14.152,55.852L13.369,63.04L12.133,62.379L13.204,55.686L12.875,52.795Z" style="fill-rule:nonzero;"/>
        </g>
        <g id="right-feet" transform="matrix(1,0,0,1,1.10311,-0.0253349)">
            <path d="M14.433,87.868L14.309,91.321L14.018,92.527L13.147,92.527L12.898,91.695L12.608,91.654L12.67,92.485L11.571,92.152L11.28,91.986L10.035,91.715L9.994,90.738L11.197,88.7L12.027,87.66L14.06,86.828L14.433,87.868Z" style="fill-rule:nonzero;"/>
        </g>
        <g id="calf-right" transform="matrix(1,0,0,1,1.10311,-0.0253349)">
            <path d="M13.438,70.441L13.147,71.356L12.525,75.224L12.442,80.381L13.314,85.414L13.272,78.967L14.185,76.389L14.309,73.56L13.438,70.441ZM11.446,72.77L11.654,80.506L13.313,86.745L11.508,85.893L8.5,75.057L9.538,68.236L11.446,72.77Z" style="fill-rule:nonzero;"/>
        </g>
        <g id="knee-right" transform="matrix(1,0,0,1,1.10311,-0.0253349)">
            <path d="M10.284,64.784L10.16,65.907L11.031,66.989L11.322,68.695L11.903,68.944L12.401,66.366L12.732,65.451L12.442,64.868L10.284,64.784ZM14.143,64.868L13.521,66.614L12.193,69.193L12.525,71.564L13.479,68.902L14.267,67.406L14.143,64.868ZM9.164,62.497L10.118,67.613L9.496,67.28L8.998,68.944L9.164,62.497Z" style="fill-rule:nonzero;"/>
        </g>
        <g id="elbow-right" transform="matrix(1,0,0,1,1.10311,-0.0253349)">
            <path d="M3.205,27.37L3.21,30.464L2.631,32.376L2.085,29.964L3.205,27.37Z" style="fill-rule:nonzero;"/>
        </g>
        <g id="hand-right" transform="matrix(1,0,0,1,1.10311,-0.0253349)">
            <path d="M4.39,43.563L2.871,43.614L2.104,42.943L0.892,45.1L0.029,48.429L0.523,48.65L1.121,46.448L1.621,46.701L1.265,49.196L1.889,49.439L2.303,46.947L2.861,47.126L2.635,49.892L3.404,50.214L3.662,47.347L4.12,47.329L4.286,49.981L4.946,50.244L5.017,45.678L5.359,45.484L6.712,47.167L7.04,46.824L6.314,44.769L4.39,43.563Z" style="fill-rule:nonzero;"/>
        </g>
        <g id="elbow-left" transform="matrix(1,0,0,1,1.10311,-0.0253349)">
            <path d="M28.325,27.37L28.32,30.464L28.9,32.376L29.445,29.964L28.325,27.37Z" style="fill-rule:nonzero;"/>
        </g>
        <g id="hands-left" transform="matrix(1,0,0,1,1.10311,-0.0253349)">
            <path d="M27.14,43.563L28.66,43.614L29.426,42.943L30.639,45.1L31.501,48.429L31.008,48.65L30.409,46.448L29.909,46.701L30.266,49.196L29.642,49.439L29.228,46.947L28.669,47.126L28.896,49.892L28.126,50.214L27.868,47.347L27.411,47.329L27.244,49.981L26.584,50.244L26.513,45.678L26.172,45.484L24.819,47.167L24.49,46.824L25.217,44.769L27.14,43.563Z" style="fill-rule:nonzero;"/>
        </g>
    </g>
    <g id="Back">
        <g id="armback-left" transform="matrix(1,0,0,1,-35.368,-0.00027586)">
            <path d="M43.186,27.069L43.615,25.653L44.92,23.967L43.526,21.006L41.242,21.927L39.407,23.674L38.871,25.461L39.142,29.769L43.186,27.069ZM40.717,42.425L39.199,42.511L38.417,41.858L37.255,44.044L36.471,47.392L36.97,47.601L37.516,45.385L38.022,45.627L37.725,48.129L38.354,48.358L38.709,45.857L39.272,46.022L39.11,48.793L39.887,49.097L40.078,46.224L40.535,46.196L40.763,48.843L41.429,49.091L41.393,44.524L41.73,44.322L43.123,45.973L43.443,45.622L42.668,43.585L40.717,42.425ZM39.74,42.247L38.305,41.501L37.998,34.491C37.998,34.491 38.642,31.712 38.635,31.429L39.245,30.209L42.87,27.644L42.187,29.635L42.603,34.383L40.799,42.081L39.74,42.247Z" style="fill-rule:nonzero;"/>
        </g>
        <g id="leg-left" transform="matrix(1,0,0,1,-35.368,-0.00027586)">
            <path d="M51.176,64.074L49.97,67.089L50.677,67.354L51.575,70.872L51.017,66.86L51.176,64.074ZM46.091,60.924L46.725,62.785L46.893,64.817L47.506,66.749L46.6,66.664L46.315,68.823L46.091,60.924ZM50.393,67.512L51.669,72.509L51.379,75.532L50.701,85.598L49.037,86.233L45.533,74.263L46.783,67.088L50.393,67.512ZM50.933,88.341L51.785,89.699L52.157,90.491L52.001,91.709L51.231,92.454L49.719,92.579L48.589,92.287L48.347,91.328L49.155,90.024L48.929,89.164L49.226,88.323L49.207,86.508L50.742,85.959L50.933,88.341ZM49.737,88.808L49.897,90.066L49.294,91.041M48.75,91.336L49.815,91.737L51.368,91.085M47.175,51.551L51.726,49.512L52.364,49.743L52.399,51.55L52.474,56.196L50.496,62.239L50.972,63.653L49.544,66.948L47.777,66.646L47.277,64.53L47.107,62.774L44.686,54.616L44.343,50.969L47.175,51.551Z" style="fill-rule:nonzero;"/>
        </g>
        <g id="buttock" transform="matrix(1,0,0,1,-35.368,-0.00027586)">
            <path d="M44.743,39.689L50.227,41.554L52.5,42.891L55.242,41.147L59.76,39.867L60.661,42.164L61.336,45.598L60.523,50.627L57.696,50.795L53.584,49.119L52.576,49.51L51.617,49.111L47.177,51.055L44.406,50.541L43.455,44.387L43.822,41.601L44.743,39.689Z" style="fill-rule:nonzero;"/>
        </g>
        <g id="loin" transform="matrix(1,0,0,1,-35.368,-0.00027586)">
            <path d="M51.818,37.31L51.963,40.282L53.122,40.258L53.17,37.294L55.979,36.474L58.319,35.72L59.661,39.453L54.882,40.817L52.549,42.033L50.173,40.8L44.717,39.423L46.236,35.465L51.818,37.31Z" style="fill-rule:nonzero;"/>
        </g>
        <g id="column" transform="matrix(1,0,0,1,-35.368,-0.00027586)">
            <path d="M51.734,14.789L52.272,40.119L52.762,40.09L53.419,14.751L53.137,13.909L51.887,13.908L51.734,14.789Z" style="fill-rule:nonzero;"/>
        </g>
        <g id="head-back" transform="matrix(1,0,0,1,-35.368,-0.00027586)">
            <path d="M48.157,6.359L48.6,6.209L48.761,6.373L50.242,10.421L52.566,11.872L54.966,10.348L55.942,6.658L56.469,6.099L56.703,6.197L56.945,2.853L54.914,0.542L52.069,0.025L49.864,0.554L47.928,3.185L48.157,6.359Z" style="fill-rule:nonzero;"/>
        </g>
        <g id="nape" transform="matrix(1,0,0,1,-35.368,-0.00027586)">
            <path d="M52.37,12.105L50.012,10.555L48.541,6.603L47.933,6.643L48.208,8.468L49.184,8.807L49.945,11.023L50.275,12.091L50.365,14.24L51.529,14.248L51.635,13.54L52.182,13.48L52.37,12.105ZM53.388,13.581L53.625,14.231L55.006,14.227L55.016,11.839L55.276,11.048L55.848,8.879L56.612,8.468L56.863,6.684L56.235,6.704L55.15,10.603L52.753,12.07L53.029,13.555L53.388,13.581Z" style="fill-rule:nonzero;"/>
        </g>
        <g id="armback-right" transform="matrix(1,0,0,1,-35.368,-0.00027586)">
            <path d="M61.657,27.251L61.33,26.199L60.056,24.145L61.443,21.18L63.729,22.096L65.568,23.839L66.108,25.624L65.847,29.933L61.657,27.251ZM64.301,42.592L65.82,42.675L66.6,42.02L67.767,44.203L68.559,47.549L68.06,47.76L67.509,45.546L67.003,45.788L67.307,48.29L66.678,48.52L66.317,46.02L65.755,46.186L65.923,48.957L65.147,49.263L64.949,46.39L64.492,46.363L64.27,49.011L63.604,49.26L63.63,44.693L63.292,44.492L61.904,46.147L61.583,45.796L62.353,43.757L64.301,42.592ZM65.278,42.412L66.712,41.663L67.002,34.653C67.002,34.653 66.352,31.875 66.358,31.591L65.745,30.373L61.764,27.798L62.786,29.733L62.397,34.555L64.219,42.248L65.278,42.412Z" style="fill-rule:nonzero;"/>
        </g>
        <g id="leg-right" transform="matrix(1,0,0,1,-35.368,-0.00027586)">
            <path d="M54.019,64.074L55.225,67.089L54.518,67.354L53.62,70.872L54.178,66.86L54.019,64.074ZM59.104,60.924L58.471,62.785L58.303,64.817L57.689,66.749L58.595,66.664L58.881,68.823L59.104,60.924ZM54.803,67.512L53.526,72.509L53.816,75.532L54.495,85.598L56.158,86.233L59.662,74.263L58.412,67.088L54.803,67.512ZM54.262,88.341L53.41,89.699L53.039,90.491L53.194,91.709L53.964,92.454L55.476,92.579L56.606,92.287L56.848,91.328L56.041,90.024L56.266,89.164L55.969,88.323L55.989,86.508L54.453,85.959L54.262,88.341ZM55.458,88.808L55.299,90.066L55.901,91.041M56.446,91.336L55.381,91.737L53.828,91.085M57.393,51.183L53.413,49.481L52.849,49.752L52.796,51.55L52.721,56.196L54.7,62.239L54.224,63.653L55.652,66.948L57.418,66.646L57.919,64.53L58.088,62.774L60.509,54.616L60.518,50.933L57.393,51.183Z" style="fill-rule:nonzero;"/>
        </g>
        <g id="back-right" transform="matrix(1,0,0,1,-35.368,-0.00027586)">
            <path d="M62.863,16.686L64.438,18.251L65.252,20.32L65.29,22.849L63.801,21.609L61.039,20.454L59.192,23.888L58.055,29.385L57.979,35.245L53.908,36.354L54.012,28.413L55.953,23.513L60.997,15.319L62.863,16.686Z" style="fill-rule:nonzero;"/>
        </g>
        <g id="clavicule-right" transform="matrix(1,0,0,1,-35.368,-0.00027586)">
            <path d="M55.439,14.729L55.376,12.104L56.09,13.256L60.47,14.754L55.492,23.121L53.661,28.203L53.881,14.649L55.439,14.729Z" style="fill-rule:nonzero;"/>
        </g>
        <g id="back-left" transform="matrix(1,0,0,1,-35.368,-0.00027586)">
            <path d="M42.201,16.586L40.626,18.152L39.812,20.221L39.426,22.749L41.263,21.51L44.025,20.355L45.872,23.789L47.009,29.286L47.086,35.145L51.156,36.255L51.053,28.314L49.112,23.413L44.068,15.22L42.201,16.586Z" style="fill-rule:nonzero;"/>
        </g>
        <g id="clavicule-left" transform="matrix(1,0,0,1,-35.368,-0.00027586)">
            <path d="M49.625,14.629L49.688,12.005L48.974,13.157L44.594,14.654L49.572,23.022L51.403,28.104L51.183,14.55L49.625,14.629Z" style="fill-rule:nonzero;"/>
        </g>
    </g>
</svg>
