<?xml version="1.0" standalone="no"?>
<!DOCTYPE svg PUBLIC "-//W3C//DTD SVG 20010904//EN"
 "http://www.w3.org/TR/2001/REC-SVG-20010904/DTD/svg10.dtd">
<svg version="1.0" xmlns="http://www.w3.org/2000/svg"
 width="512.000000pt" height="512.000000pt" viewBox="0 0 512.000000 512.000000"
 preserveAspectRatio="xMidYMid meet">
<metadata>
Created by potrace 1.14, written by Peter Selinger 2001-2017
</metadata>
<g transform="translate(0.000000,512.000000) scale(0.100000,-0.100000)"
fill="#000000" stroke="none">
<path d="M2367 5063 c-1 -1 -44 -4 -95 -8 -52 -4 -104 -8 -115 -11 -12 -2 -34
-6 -49 -9 -14 -3 -66 -14 -115 -26 -48 -12 -95 -22 -103 -24 -53 -12 -337
-127 -450 -183 -74 -36 -139 -65 -144 -64 -15 5 -209 3 -231 -2 -79 -16 -254
-73 -270 -87 -15 -15 -41 -10 -65 11 -13 11 -29 20 -36 20 -17 0 -77 -35 -144
-84 -30 -23 -67 -49 -82 -59 -73 -47 -180 -184 -233 -301 -70 -153 -93 -280
-90 -481 3 -169 17 -247 71 -403 l36 -102 -27 -162 c-14 -89 -33 -177 -41
-196 -20 -48 -18 -65 5 -59 15 4 20 -2 23 -25 3 -16 -2 -41 -9 -56 -8 -15 -12
-39 -9 -54 4 -21 0 -30 -14 -38 -16 -8 -19 -6 -25 20 -7 31 -39 58 -50 41 -3
-6 1 -13 8 -18 29 -17 37 -48 20 -73 -12 -17 -13 -25 -5 -28 14 -4 16 -48 3
-56 -17 -11 -25 -88 -10 -97 7 -4 17 -5 23 -2 14 9 -3 -80 -17 -89 -9 -6 -4
-15 16 -31 26 -22 36 -47 19 -47 -4 0 -8 -8 -8 -18 0 -15 4 -16 22 -8 11 6 21
17 20 26 -1 11 7 14 26 12 14 -2 29 1 32 6 3 6 15 8 26 5 11 -3 17 -9 14 -14
-3 -5 -1 -9 5 -9 5 0 12 4 15 9 3 5 15 7 26 4 13 -3 20 0 21 8 1 8 2 21 3 29
2 31 106 24 106 -8 0 -14 2 -15 10 -2 5 8 5 17 1 20 -14 9 -23 50 -12 50 6 0
11 -7 11 -15 0 -16 12 -20 23 -8 4 3 2 12 -4 19 -14 17 -2 22 56 28 22 2 47 6
55 9 8 3 26 5 39 4 33 -3 38 21 7 29 -30 7 -33 25 -10 48 20 21 26 20 57 -4
14 -11 29 -20 35 -20 5 0 26 -20 46 -45 45 -53 218 -207 376 -334 63 -51 123
-98 132 -106 9 -7 29 -22 45 -32 15 -9 30 -20 33 -23 3 -4 48 -40 100 -80 52
-41 115 -92 140 -114 25 -23 74 -66 109 -96 35 -30 69 -60 75 -65 46 -42 166
-133 189 -143 46 -20 34 10 -43 105 -39 48 -92 130 -119 182 -45 86 -57 101
-115 143 -51 36 -67 55 -76 85 -11 36 -9 44 34 131 26 50 50 92 54 92 12 0 81
-75 136 -147 26 -35 53 -64 59 -64 43 -5 66 -3 93 8 32 12 32 12 39 -23 14
-79 41 -103 105 -97 48 5 89 -23 133 -90 21 -31 42 -59 46 -62 5 -3 26 5 46
16 49 30 119 29 175 0 38 -20 44 -20 60 -6 9 8 20 12 24 8 4 -5 6 -3 5 2 -1 6
24 37 56 69 58 58 61 59 116 61 67 2 80 11 111 72 28 56 31 57 67 38 52 -26
65 -20 127 60 33 41 62 75 65 75 9 0 29 -73 29 -107 0 -47 -72 -132 -112 -133
-10 0 -26 -17 -39 -42 -12 -24 -25 -45 -29 -48 -4 -3 -19 -27 -34 -53 -31 -57
-58 -95 -108 -158 -74 -91 -27 -106 67 -23 27 25 83 70 124 101 40 31 99 81
131 112 54 53 110 95 245 184 130 85 162 109 221 159 33 29 80 69 104 88 24
19 48 40 54 45 6 6 41 35 76 65 98 83 123 109 170 179 23 35 57 80 75 100 17
20 37 45 43 56 10 18 11 15 12 -19 0 -33 -3 -38 -20 -33 -16 4 -18 2 -11 -10
4 -9 6 -24 4 -34 -3 -11 0 -19 6 -19 6 0 11 5 11 10 0 6 8 10 18 10 19 0 42
-37 42 -67 0 -13 -3 -13 -15 -3 -22 18 -18 1 14 -55 21 -36 37 -53 60 -60 22
-6 31 -15 31 -30 0 -29 66 -76 167 -118 43 -19 100 -47 128 -63 44 -27 123
-108 165 -172 15 -21 16 -22 63 -7 26 8 54 12 61 9 17 -6 31 12 16 21 -15 9
-2 25 21 25 10 0 18 3 18 8 -5 31 4 54 26 64 27 12 34 28 12 28 -7 0 -19 21
-26 48 -8 26 -20 57 -28 68 -11 17 -11 31 -3 63 5 22 15 59 20 82 6 23 10 69
9 103 0 33 0 117 1 186 1 132 -5 229 -20 320 -5 30 -11 73 -15 95 -3 22 -12
76 -20 120 -38 206 -77 318 -181 528 -44 89 -65 145 -69 180 -7 65 -47 206
-86 304 -66 167 -196 325 -344 418 -88 55 -112 61 -148 37 -27 -18 -28 -18
-140 19 -61 21 -119 38 -128 39 -9 0 -67 26 -130 58 -118 61 -298 138 -359
154 -19 5 -84 25 -145 43 -60 19 -153 42 -205 50 -52 9 -105 18 -118 20 -66
11 -517 27 -525 18z m1123 -283 c0 -5 -2 -10 -4 -10 -3 0 -8 5 -11 10 -3 6 -1
10 4 10 6 0 11 -4 11 -10z m-1100 -85 c0 -18 -43 -35 -64 -23 -20 11 -13 42
18 75 l20 21 13 -30 c7 -17 13 -36 13 -43z m63 2 c3 -7 -2 -22 -10 -32 -13
-19 -14 -18 -9 10 6 42 10 46 19 22z m-568 -36 c-10 -16 -25 -3 -25 22 0 20 1
20 16 5 9 -9 13 -21 9 -27z m423 -30 c3 -29 1 -33 -14 -27 -10 4 -21 1 -25 -6
-7 -10 -12 -9 -25 4 -15 14 -16 22 -6 43 10 21 18 26 40 23 23 -3 28 -8 30
-37z m587 -66 c-3 -30 -13 -59 -22 -67 -15 -11 -16 -10 -9 12 8 23 12 55 15
120 1 23 3 23 12 7 7 -12 8 -40 4 -72z m644 33 c6 -29 12 -67 15 -84 2 -17 9
-41 15 -52 6 -11 11 -27 11 -34 -1 -34 -70 147 -70 182 0 57 17 49 29 -12z
m-529 -36 c0 -34 -36 -107 -45 -92 -8 13 24 120 36 120 5 0 9 -13 9 -28z m920
-17 c0 -6 7 -26 16 -44 19 -39 13 -51 -13 -22 -10 12 -26 30 -35 41 -21 23
-23 46 -5 53 15 5 37 -11 37 -28z m-3230 -10 c0 -3 -42 -36 -92 -73 -105 -78
-167 -141 -198 -202 -12 -24 -26 -48 -31 -54 -61 -75 -104 -153 -155 -278 -10
-27 -23 -46 -29 -44 -14 5 -8 98 9 150 37 108 130 253 215 335 90 86 281 199
281 166z m3353 -20 c30 -27 42 -61 26 -71 -6 -3 -13 3 -16 15 -6 22 -18 27
-28 11 -16 -26 -51 24 -38 56 8 20 24 17 56 -11z m-2012 4 c7 -4 4 -9 -10 -14
-12 -4 -28 -2 -36 5 -8 6 -23 9 -35 5 -12 -4 -20 -2 -20 5 0 12 82 11 101 -1z
m1124 -29 c-3 -5 -1 -11 5 -15 5 -3 10 -16 10 -27 0 -21 0 -21 -25 2 -24 23
-32 50 -18 63 8 9 34 -13 28 -23z m1138 -36 c153 -99 269 -250 327 -427 23
-72 22 -98 -2 -50 -19 37 -42 77 -48 83 -3 3 -23 28 -45 55 -22 28 -54 64 -73
80 -18 17 -35 43 -38 59 -12 67 -54 113 -233 253 -37 30 43 -9 112 -53z
m-1633 37 c0 -20 -31 -32 -77 -29 l-48 3 50 16 c59 20 75 22 75 10z m-370 -32
c0 -6 11 -20 25 -31 20 -16 23 -23 14 -34 -6 -8 -23 -14 -38 -13 -14 0 -20 3
-13 6 18 7 15 19 -9 42 -12 11 -18 24 -14 30 8 14 35 14 35 0z m544 -10 c-3
-5 -10 -7 -15 -3 -5 3 -7 10 -3 15 3 5 10 7 15 3 5 -3 7 -10 3 -15z m-1154 7
c0 -2 -7 -9 -15 -16 -12 -10 -15 -10 -15 4 0 9 7 16 15 16 8 0 15 -2 15 -4z
m14 -62 c9 -3 16 -14 16 -23 1 -23 22 -46 44 -46 10 0 25 -10 34 -23 14 -22
14 -22 -11 -13 -17 7 -28 7 -32 1 -10 -16 -25 -11 -19 5 4 9 -1 18 -11 21 -9
4 -14 13 -11 20 3 7 -1 17 -8 21 -12 8 -30 43 -22 43 3 0 11 -3 20 -6z m1544
-29 c6 -14 16 -25 22 -25 5 0 10 -7 10 -15 0 -22 -18 -18 -25 5 -3 11 -13 20
-21 20 -8 0 -14 9 -14 20 0 28 14 25 28 -5z m-793 5 c-3 -5 -10 -10 -16 -10
-5 0 -9 5 -9 10 0 6 7 10 16 10 8 0 12 -4 9 -10z m383 -57 c-1 -21 -6 -41 -11
-44 -5 -4 -5 -14 1 -25 12 -23 -3 -58 -20 -48 -6 4 -14 1 -18 -6 -4 -7 -13 -9
-20 -5 -8 5 -7 12 5 25 9 10 14 24 10 29 -3 6 1 14 10 17 11 5 14 15 11 35 -3
18 1 30 11 33 8 3 11 10 8 16 -3 5 -1 10 5 10 6 0 10 -16 8 -37z m797 -27 c11
-30 10 -38 -2 -48 -23 -18 -43 16 -43 71 0 42 1 44 17 29 9 -9 22 -33 28 -52z
m-2895 19 c-6 -15 -45 -73 -87 -129 -56 -74 -74 -93 -69 -71 4 17 18 48 31 71
26 45 126 166 132 160 2 -2 -1 -16 -7 -31z m1302 -28 c7 -15 7 -22 -3 -28 -21
-13 -28 -11 -28 9 1 9 -3 28 -7 42 -7 23 -6 24 10 11 9 -8 22 -23 28 -34z
m-112 -27 c0 -11 -30 -14 -30 -2 0 4 -3 18 -7 32 l-6 25 22 -22 c11 -12 21
-27 21 -33z m1399 24 c3 -16 1 -17 -13 -5 -19 16 -21 34 -3 29 6 -3 14 -13 16
-24z m-1035 1 c3 -8 1 -15 -4 -15 -6 0 -10 7 -10 15 0 8 2 15 4 15 2 0 6 -7
10 -15z m1790 -26 c-9 -15 -31 -10 -38 7 -10 26 4 37 25 18 10 -9 16 -21 13
-25z m-276 -15 c3 -43 -5 -74 -20 -74 -10 0 -3 84 9 103 7 12 9 8 11 -29z
m-1563 6 c0 -7 -6 -15 -12 -17 -8 -3 -13 4 -13 17 0 13 5 20 13 18 6 -3 12
-11 12 -18z m195 -6 c0 -8 -4 -14 -10 -14 -5 0 -10 9 -10 21 0 11 5 17 10 14
6 -3 10 -13 10 -21z m-51 -5 c29 -31 24 -91 -6 -95 -13 -2 -23 1 -23 6 0 10
-48 35 -62 32 -5 -1 -8 1 -8 6 1 12 27 42 38 42 5 0 12 7 16 15 8 21 22 19 45
-6z m-194 2 c3 -5 1 -12 -4 -15 -5 -3 -11 1 -15 9 -6 16 9 21 19 6z m567 -13
c-7 -7 -12 -8 -12 -2 0 6 3 14 7 17 3 4 9 5 12 2 2 -3 -1 -11 -7 -17z m978 -8
c0 -22 -4 -28 -16 -23 -8 3 -13 12 -10 20 3 8 6 19 6 24 0 5 5 9 10 9 6 0 10
-13 10 -30z m-1453 14 c-3 -3 -12 -4 -19 -1 -8 3 -5 6 6 6 11 1 17 -2 13 -5z
m203 -51 c0 -7 -4 -13 -8 -13 -14 0 -32 23 -32 42 0 17 1 17 20 1 11 -10 20
-23 20 -30z m448 12 c-9 -9 -30 14 -23 25 6 9 10 8 17 -4 6 -10 8 -19 6 -21z
m172 15 c0 -5 -7 -7 -15 -4 -8 4 -12 10 -9 15 6 11 24 2 24 -11z m-470 -4 c0
-13 -23 -66 -29 -66 -17 0 -19 14 -5 41 12 24 34 40 34 25z m-669 -18 c3 -78
19 -191 29 -203 4 -5 10 -30 14 -55 11 -78 -19 -22 -33 62 -7 40 -16 80 -20
88 -12 22 -40 24 -63 3 -19 -17 -20 -17 -40 6 l-19 25 26 13 c14 8 23 18 20
24 -4 6 -13 5 -25 -1 -25 -13 -34 3 -12 23 26 24 122 35 123 15z m49 1 c0 -8
4 -8 15 1 17 14 42 3 27 -12 -6 -6 -8 -16 -6 -23 7 -16 -16 -24 -50 -18 -15 3
-25 10 -21 17 3 6 8 19 11 29 7 19 24 23 24 6z m710 2 c0 -5 11 -12 24 -15 16
-4 26 -16 31 -38 15 -63 3 -82 -50 -80 -74 3 -114 89 -57 124 31 18 52 22 52
9z m71 -24 c-8 -8 -11 -7 -11 4 0 20 13 34 18 19 3 -7 -1 -17 -7 -23z m-261
-7 c0 -11 -4 -20 -9 -20 -5 0 -7 9 -4 20 3 11 7 20 9 20 2 0 4 -9 4 -20z m320
-11 c0 -16 -3 -17 -25 -7 -19 8 -22 14 -14 24 14 17 39 6 39 -17z m473 25 c3
-3 3 -12 0 -20 -4 -11 -7 -11 -19 1 -8 7 -14 16 -14 19 0 8 25 8 33 0z m107
-16 c0 -16 -3 -19 -11 -11 -6 6 -8 16 -5 22 11 17 16 13 16 -11z m283 8 c3 -7
0 -19 -6 -25 -8 -8 -7 -11 4 -11 8 0 20 5 26 11 7 7 12 3 17 -15 6 -23 9 -25
27 -15 18 9 20 8 16 -8 -3 -10 -9 -39 -13 -66 -8 -57 -24 -72 -24 -23 0 29 -4
36 -19 36 -13 0 -18 7 -18 25 0 34 -12 44 -24 22 -17 -30 -29 -19 -27 26 1 50
28 78 41 43z m-2513 -14 c0 -10 -3 -22 -7 -25 -10 -11 -32 13 -26 29 8 20 33
17 33 -4z m320 -22 c0 -20 -5 -30 -15 -30 -15 0 -21 40 -8 53 14 15 23 6 23
-23z m1053 1 c2 -10 1 -24 -3 -30 -11 -19 -33 14 -25 39 7 23 20 19 28 -9z
m-171 -62 c5 -16 14 -30 19 -30 5 -1 17 -2 27 -3 32 -1 43 -67 16 -97 -12 -13
-13 -22 -5 -37 6 -11 7 -22 4 -26 -3 -3 2 -15 12 -26 18 -19 17 -20 -1 -21
-128 -5 -290 -40 -390 -84 -65 -29 -71 -30 -55 -11 9 11 9 16 0 22 -12 7 -51
-35 -43 -47 10 -16 -64 -49 -105 -46 -39 2 -42 4 -36 27 4 14 13 28 20 33 32
17 59 70 57 111 -2 47 23 91 38 67 5 -8 4 -25 -1 -39 -13 -33 -4 -39 22 -16
20 18 21 18 36 -1 14 -20 14 -20 29 -1 21 30 18 66 -6 66 -11 0 -20 3 -21 8 0
4 -2 15 -4 25 -2 9 3 17 11 17 8 0 14 -4 14 -10 0 -39 45 38 56 97 4 17 13 34
21 37 24 9 65 -5 59 -20 -3 -7 -1 -16 4 -19 15 -9 12 -35 -2 -32 -7 1 -13 -5
-13 -13 0 -8 -4 -21 -8 -27 -11 -18 -2 -30 30 -36 35 -7 53 7 45 35 -3 15 -2
19 7 14 6 -4 9 -11 6 -15 -2 -5 2 -17 10 -27 14 -18 14 -18 15 4 0 12 5 23 10
23 6 1 14 2 19 3 18 2 24 16 13 29 -14 16 -6 28 14 20 17 -6 18 8 2 26 -10 11
-10 14 0 18 6 3 12 13 12 22 0 31 50 14 62 -20z m1178 21 c0 -5 -4 -10 -10
-10 -5 0 -10 5 -10 10 0 6 5 10 10 10 6 0 10 -4 10 -10z m-1337 -20 c-3 -11
-9 -20 -15 -20 -5 0 -4 9 2 20 6 11 12 20 14 20 2 0 2 -9 -1 -20z m1051 -1
c-3 -5 -11 -9 -19 -9 -8 0 -16 4 -19 9 -3 5 5 9 19 9 14 0 22 -4 19 -9z m1108
-24 c16 -22 8 -45 -16 -45 -20 0 -24 6 -28 35 -2 20 -2 38 1 40 4 5 31 -13 43
-30z m-1467 16 c3 -5 1 -12 -5 -16 -5 -3 -10 1 -10 9 0 18 6 21 15 7z m-285
-24 c14 -13 36 -38 49 -55 25 -33 51 -42 51 -18 0 22 43 29 57 8 40 -58 42
-59 58 -38 8 11 15 14 15 7 0 -7 7 -19 15 -27 8 -9 15 -24 15 -35 0 -10 5 -19
10 -19 6 0 10 4 10 10 0 5 7 7 15 4 9 -4 15 0 15 10 0 13 4 14 25 4 14 -6 25
-15 25 -20 0 -5 11 -8 25 -6 17 2 36 -8 64 -35 22 -20 42 -33 45 -28 3 5 -1
11 -9 15 -11 4 -14 17 -11 53 4 53 20 59 59 22 11 -10 24 -19 28 -19 8 0 20
-34 23 -66 2 -11 6 -25 9 -31 4 -6 -4 -14 -18 -17 -14 -4 -25 -11 -25 -16 0
-10 20 -25 34 -25 5 0 14 -19 21 -42 7 -24 9 -43 5 -43 -18 0 -47 40 -38 53 1
1 -4 12 -11 25 -13 25 -31 29 -31 7 0 -8 -4 -15 -9 -15 -5 0 -16 7 -25 15 -8
8 -26 15 -39 15 -20 0 -24 -4 -20 -20 3 -11 9 -18 13 -15 4 3 10 -9 12 -25 3
-17 3 -30 2 -30 -2 0 -26 14 -54 30 -28 17 -52 30 -54 30 -2 0 -21 8 -42 17
-22 9 -61 24 -88 33 -43 13 -63 33 -36 36 21 3 22 4 10 19 -17 21 -80 16 -80
-6 0 -15 -5 -16 -41 -6 -33 8 -44 17 -56 44 -15 37 -36 40 -41 5 -3 -16 1 -20
12 -16 9 3 16 1 16 -5 0 -7 -19 -9 -57 -5 -64 7 -74 11 -55 23 10 6 10 10 -2
20 -12 10 -13 17 -4 31 9 14 8 24 -5 44 -29 43 -20 73 33 109 33 23 50 21 80
-6z m210 7 c0 -8 -5 -12 -10 -9 -6 4 -8 11 -5 16 9 14 15 11 15 -7z m716 -24
c26 0 29 -1 52 -23 22 -20 23 -31 12 -94 0 -1 -6 0 -14 3 -8 3 -12 13 -9 24 3
10 0 21 -6 24 -6 4 -11 0 -11 -8 0 -16 -25 -24 -52 -18 -21 5 -24 42 -6 60 10
10 10 15 -2 22 -10 7 -11 10 -2 10 6 0 13 10 13 23 l2 22 4 -22 c2 -13 11 -23
19 -23z m-1056 14 c0 -8 -5 -12 -10 -9 -6 4 -8 11 -5 16 9 14 15 11 15 -7z
m-1165 -43 c-7 -23 -31 -28 -38 -8 -2 6 1 22 6 35 9 20 12 21 25 8 9 -8 11
-22 7 -35z m2133 31 c3 -9 -2 -13 -14 -10 -9 1 -19 9 -22 16 -3 9 2 13 14 10
9 -1 19 -9 22 -16z m515 -12 c16 0 37 -76 37 -129 0 -30 -4 -40 -20 -44 -13
-3 -20 0 -20 8 0 7 -11 26 -24 42 -43 53 -46 64 -24 112 17 37 22 42 30 28 5
-9 15 -17 21 -17z m-2397 -4 c1 -1 4 -13 8 -28 6 -26 5 -27 -34 -25 -49 2 -80
28 -61 51 9 10 24 13 49 9 20 -3 37 -6 38 -7z m1274 5 c0 -5 3 -18 7 -28 6
-16 5 -16 -10 -4 -19 15 -23 41 -7 41 6 0 10 -4 10 -9z m80 -32 c0 -5 -7 -6
-15 -3 -8 4 -15 13 -15 21 0 13 3 13 15 3 8 -7 15 -16 15 -21z m83 11 c3 -11
1 -18 -4 -14 -5 3 -9 12 -9 20 0 20 7 17 13 -6z m-1303 -47 c0 -28 -3 -33 -13
-24 -8 6 -13 21 -11 33 1 13 3 27 3 31 1 5 6 5 11 2 6 -3 10 -22 10 -42z
m1625 37 c4 -6 10 -8 14 -5 13 7 71 -25 71 -39 0 -35 -88 -44 -143 -14 -17 9
-17 11 -3 27 9 10 16 23 16 29 0 15 36 16 45 2z m-1457 -41 c-10 -5 -15 -16
-12 -24 4 -10 0 -15 -15 -15 -27 0 -27 16 2 46 15 15 25 20 32 13 7 -7 4 -13
-7 -20z m1048 -12 c-5 -22 -36 -35 -36 -15 0 4 7 8 15 8 8 0 14 3 14 8 -3 17
1 35 7 29 4 -3 4 -17 0 -30z m-1366 -2 c7 -8 10 -15 6 -15 -4 0 3 -18 14 -40
11 -22 24 -40 29 -40 11 0 31 -55 31 -83 0 -18 -2 -17 -21 7 -11 14 -18 30
-15 35 3 4 -3 16 -14 26 -16 14 -20 15 -20 4 0 -8 6 -24 14 -35 13 -18 13 -22
-4 -37 -11 -9 -21 -13 -23 -9 -15 26 -28 89 -27 127 1 67 3 75 10 75 4 0 13
-7 20 -15z m1650 -38 c0 -7 10 -21 21 -31 16 -13 18 -21 10 -29 -8 -8 -15 -6
-25 8 -8 11 -12 23 -9 27 2 5 -3 11 -11 14 -9 3 -13 10 -10 15 8 13 24 11 24
-4z m390 -2 c10 -12 10 -15 -3 -15 -8 0 -17 7 -21 15 -3 8 -2 15 3 15 5 0 14
-7 21 -15z m250 4 c0 -7 7 -17 17 -24 25 -18 9 -45 -27 -45 -33 0 -32 1 -34
-85 -1 -44 4 -65 17 -79 40 -45 7 -80 -37 -39 -20 19 -26 31 -22 49 3 12 2 25
-4 29 -5 3 -10 22 -10 43 0 20 -1 49 -2 63 -1 35 36 72 63 64 18 -6 20 -4 14
14 -5 15 -2 21 9 21 9 0 16 -5 16 -11z m235 -28 c-4 -47 -14 -69 -25 -51 -8
13 10 90 21 90 4 0 6 -18 4 -39z m-425 -17 c0 -31 -23 -28 -28 4 -2 15 2 22
12 22 11 0 16 -9 16 -26z m-170 6 c0 -5 -7 -10 -15 -10 -8 0 -15 5 -15 10 0 6
7 10 15 10 8 0 15 -4 15 -10z m91 -3 c-1 -12 -15 -9 -19 4 -3 6 1 10 8 8 6 -3
11 -8 11 -12z m-1795 -29 c-9 -5 -16 -16 -16 -24 0 -23 -24 -11 -28 13 -2 15
4 24 25 30 31 11 46 -4 19 -19z m2114 -8 c0 -5 -4 -10 -10 -10 -5 0 -10 5 -10
10 0 6 5 10 10 10 6 0 10 -4 10 -10z m-370 -20 c0 -11 -4 -20 -10 -20 -5 0
-10 9 -10 20 0 11 5 20 10 20 6 0 10 -9 10 -20z m-107 -45 c-7 -21 -13 -19
-13 6 0 11 4 18 10 14 5 -3 7 -12 3 -20z m-2197 1 c18 -18 18 -32 0 -39 -14
-6 -26 12 -26 39 0 18 8 18 26 0z m2384 -48 c0 -27 -32 -40 -52 -21 -16 15
-16 17 5 43 19 23 23 25 34 11 7 -9 13 -24 13 -33z m-2080 6 c0 -8 -4 -14 -10
-14 -5 0 -10 9 -10 21 0 11 5 17 10 14 6 -3 10 -13 10 -21z m191 -10 c11 -31
12 -30 -27 -38 -27 -6 -32 -4 -37 16 -8 28 -2 34 18 18 13 -10 15 -9 15 9 0
29 18 26 31 -5z m2011 -24 c15 0 8 -30 -7 -31 -8 -1 -20 -2 -26 -3 -7 0 -15
-10 -19 -21 -6 -17 -8 -16 -14 9 -8 34 9 60 24 36 7 -10 8 -3 5 25 l-6 40 18
-27 c10 -16 21 -28 25 -28z m-2256 12 c-3 -3 -1 -11 5 -19 16 -19 -18 -18 -37
1 -21 22 -17 34 11 28 14 -2 23 -7 21 -10z m140 -7 c9 -14 15 -27 13 -28 -2
-1 -19 -8 -38 -14 -33 -12 -33 -12 -27 15 4 15 7 33 8 40 2 21 27 13 44 -13z
m1714 14 c0 -7 7 -17 17 -24 11 -8 14 -18 9 -31 -7 -17 -9 -17 -31 10 -13 16
-21 35 -18 43 6 16 23 17 23 2z m68 -14 c-3 -3 -9 2 -12 12 -6 14 -5 15 5 6 7
-7 10 -15 7 -18z m1002 -21 c0 -17 -15 -25 -34 -18 -19 7 -21 25 -4 42 13 13
38 -2 38 -24z m-1235 17 c3 -5 1 -12 -5 -16 -5 -3 -10 1 -10 9 0 18 6 21 15 7z
m-39 -28 c-10 -10 -19 5 -10 18 6 11 8 11 12 0 2 -7 1 -15 -2 -18z m494 -24
c0 -11 -7 -19 -15 -19 -19 0 -19 -9 0 -30 8 -9 18 -32 22 -51 6 -31 5 -33 -10
-20 -9 7 -15 17 -12 21 9 15 -27 51 -48 48 -13 -2 -22 2 -21 10 4 45 4 45 19
32 21 -17 45 3 37 33 -5 20 -4 20 11 8 9 -7 17 -22 17 -32z m-2243 4 c13 -33
32 -46 48 -33 8 7 15 18 15 25 0 8 10 12 23 11 30 -4 47 -14 47 -29 0 -9 -2
-9 -8 0 -4 6 -16 13 -27 15 -15 2 -21 -3 -23 -21 -3 -19 0 -22 12 -18 15 6 14
3 -1 -18 -18 -24 -18 -24 -34 -5 -18 21 -39 10 -39 -23 0 -14 5 -17 22 -12 17
6 20 4 14 -10 -3 -9 -9 -28 -12 -41 -7 -26 -19 -31 -27 -11 -3 7 -6 5 -6 -5
-1 -10 4 -18 10 -18 7 0 8 -11 4 -31 -9 -38 -13 -62 -14 -71 -1 -4 -10 -12
-21 -18 -19 -10 -20 -9 -15 17 6 27 6 26 -11 -5 -18 -35 -12 -51 21 -56 15 -2
19 -14 20 -67 3 -81 15 -177 26 -207 5 -12 8 -26 7 -30 -4 -15 27 -121 58
-197 47 -116 84 -198 88 -194 2 2 6 38 9 79 3 41 11 109 18 151 11 67 10 81
-5 125 -46 131 -68 245 -68 357 1 111 6 147 32 198 16 31 27 39 57 45 70 14
187 9 267 -12 18 -4 35 0 54 12 34 23 71 40 142 64 112 37 101 42 155 -67 95
-194 185 -440 218 -600 11 -52 16 -62 20 -43 32 143 47 195 92 325 92 263 157
415 176 415 29 0 180 -67 232 -103 26 -18 33 -18 115 -6 138 22 215 17 247
-15 33 -33 57 -123 58 -215 0 -87 -3 -108 -39 -251 -38 -154 -39 -185 -14
-273 12 -44 19 -94 17 -117 -2 -22 0 -43 5 -46 13 -8 104 194 132 293 30 108
37 143 38 182 1 18 5 28 11 24 6 -4 8 3 3 18 -4 13 -8 43 -10 67 -3 32 -1 40
9 32 6 -5 15 -7 18 -3 10 9 9 35 -1 29 -14 -9 -29 8 -37 42 l-7 34 31 -33 c21
-21 31 -27 31 -17 0 9 7 18 15 22 8 3 15 1 15 -3 0 -9 59 -34 61 -25 1 2 2 10
3 17 1 6 12 11 24 10 13 -2 22 3 22 11 0 24 28 40 45 26 9 -7 23 -9 37 -4 13
4 26 7 31 6 4 -1 7 5 7 13 0 9 16 32 35 52 32 33 35 34 35 13 0 -15 -4 -20
-15 -16 -10 4 -15 -2 -16 -17 -4 -121 -4 -121 28 -156 28 -31 31 -32 37 -13 8
23 46 60 46 44 0 -6 -5 -23 -10 -37 -9 -22 -8 -26 4 -22 16 6 43 -19 32 -30
-3 -3 -6 -1 -6 6 0 7 -6 11 -12 8 -8 -2 -12 -17 -10 -36 3 -22 0 -31 -7 -27
-6 4 -11 18 -11 30 0 19 -7 25 -30 28 -35 5 -35 5 -13 -29 13 -19 14 -28 5
-31 -21 -7 -13 -20 18 -31 17 -5 30 -15 30 -20 0 -6 5 -11 10 -11 11 0 34 48
31 65 0 6 4 3 11 -6 7 -9 18 -14 25 -12 6 2 14 -1 18 -7 10 -16 -23 -24 -40
-10 -8 7 -15 9 -15 5 0 -4 8 -14 18 -22 9 -7 13 -12 7 -11 -5 2 -11 -1 -12 -5
0 -5 -13 -22 -29 -38 -20 -21 -24 -32 -16 -41 5 -7 13 -30 17 -51 4 -21 14
-41 21 -44 8 -3 14 -11 14 -18 0 -6 9 -16 20 -21 19 -9 17 -14 -42 -84 -35
-41 -83 -93 -108 -117 -24 -23 -42 -44 -39 -47 8 -8 79 61 144 139 86 104 82
100 99 86 13 -11 12 -18 -11 -54 -15 -23 -56 -72 -92 -109 -216 -218 -465
-351 -683 -362 l-68 -4 -1 122 c-1 66 -2 132 -4 146 -1 14 -5 59 -9 100 -12
132 -15 155 -22 180 -3 14 -8 36 -10 50 -12 64 -57 219 -75 257 -39 81 -112
106 -223 77 -125 -33 -226 -110 -287 -219 -32 -57 -34 -65 -33 -155 0 -145 51
-286 131 -364 40 -39 132 -99 171 -111 22 -6 22 -8 7 -25 -9 -10 -61 -46 -117
-81 -55 -35 -136 -90 -180 -122 l-80 -59 -32 31 c-36 35 -48 38 -67 15 -7 -8
-25 -22 -39 -29 -26 -13 -29 -12 -76 31 -53 48 -213 159 -281 194 -42 21 -56
40 -30 40 29 0 145 69 192 115 83 81 141 214 152 345 13 173 -83 308 -262 370
-79 27 -99 31 -172 31 -73 0 -97 -11 -118 -51 -15 -30 -70 -276 -80 -365 -3
-27 -8 -63 -10 -80 -2 -16 -7 -75 -11 -130 -3 -55 -8 -107 -10 -115 -1 -8 -3
-47 -3 -86 l-1 -71 -37 -11 c-129 -38 -222 -40 -298 -7 -22 10 -42 19 -45 19
-3 1 -9 4 -15 7 -5 4 -48 19 -95 33 -108 35 -153 61 -232 136 -59 57 -62 61
-43 73 36 25 53 26 76 6 30 -26 44 -24 25 3 -24 33 -20 65 11 85 14 10 38 30
54 46 15 15 31 27 36 27 13 0 63 46 63 59 0 10 -24 16 -45 11 -5 -2 -18 -2
-27 -2 -10 0 -18 -3 -18 -9 0 -5 -4 -9 -10 -9 -5 0 -10 7 -10 15 0 8 7 15 15
15 24 0 20 33 -5 35 -8 1 -25 5 -37 9 -18 6 -22 4 -17 -7 3 -8 1 -18 -5 -22
-18 -11 -12 -35 11 -44 l22 -8 -23 -12 c-12 -7 -29 -10 -37 -7 -16 6 -19 56
-3 56 6 0 8 8 4 20 -9 27 23 73 47 67 30 -8 33 20 8 70 -16 32 -19 48 -11 56
7 7 16 5 32 -9 21 -19 21 -19 40 5 11 13 19 17 19 10 0 -7 7 -3 16 10 25 35 2
52 -31 21 -14 -13 -26 -22 -26 -19 -14 46 1 79 36 79 23 0 40 24 29 41 -3 5 0
9 6 9 6 0 8 5 5 10 -3 6 -1 10 4 10 6 0 11 -4 11 -10 0 -5 7 -10 16 -10 11 0
14 6 9 21 -4 13 0 27 11 40 9 10 12 19 7 19 -6 0 -14 8 -17 17 -6 15 -4 14 14
-2 25 -23 44 -9 46 33 0 15 6 28 12 28 7 1 18 2 25 3 7 0 18 10 25 22 11 17
11 25 -3 45 -8 13 -22 24 -29 24 -18 0 -24 19 -16 50 4 17 8 21 14 12 4 -6 5
-16 1 -21 -10 -16 32 -33 54 -22 33 18 34 41 1 48 -17 3 -30 10 -30 14 0 5 11
7 24 3 32 -8 51 3 36 21 -15 18 -14 115 2 115 5 0 12 -8 15 -17z m2148 7 c3
-5 1 -10 -4 -10 -6 0 -11 5 -11 10 0 6 2 10 4 10 3 0 8 -4 11 -10z m448 -12
c2 -7 0 -20 -4 -28 -4 -8 -10 -24 -14 -35 -6 -19 -7 -19 -25 5 -17 22 -17 25
-2 47 19 25 38 30 45 11z m-533 -37 c0 -5 -3 -17 -6 -25 -6 -15 -8 -15 -19 1
-7 10 -11 21 -9 25 7 11 34 10 34 -1z m-2381 -43 c0 -35 -2 -39 -9 -21 -8 19
-3 63 6 63 2 0 4 -19 3 -42z m3076 22 c3 -5 1 -10 -4 -10 -6 0 -11 5 -11 10 0
6 2 10 4 10 3 0 8 -4 11 -10z m-421 -63 c2 -15 0 -27 -5 -27 -5 0 -9 14 -9 32
0 37 7 34 14 -5z m-2629 -57 c-9 -15 -25 -2 -25 21 0 19 1 19 16 5 8 -9 12
-20 9 -26z m2929 -11 c22 -47 23 -50 5 -46 -23 6 -25 -8 -3 -17 15 -6 14 -9
-6 -30 l-22 -24 28 -4 c38 -4 44 -28 7 -28 -27 -1 -27 -1 -8 -16 11 -8 25 -12
32 -10 7 3 13 -1 13 -10 0 -8 9 -24 20 -36 l20 -22 0 22 c0 12 5 22 10 22 6 0
10 9 10 21 0 11 4 18 8 15 14 -8 1 -67 -19 -87 -22 -22 -30 -24 -26 -8 5 26
-22 18 -34 -10 -10 -23 -16 -27 -26 -19 -18 14 -16 37 2 44 26 10 16 24 -17
24 -24 0 -29 3 -21 11 12 12 9 27 -15 76 -15 30 -15 33 2 52 13 15 14 21 5 27
-7 4 -15 2 -17 -4 -9 -28 -17 -8 -15 39 1 47 12 68 35 69 4 0 18 -23 32 -51z
m-364 11 c0 -5 3 -17 7 -27 6 -16 5 -16 -10 -4 -9 7 -17 10 -18 5 0 -5 -4 0
-8 11 -5 11 -7 23 -4 27 5 9 33 -1 33 -12z m54 -12 c0 -18 -5 -32 -10 -31 -12
3 -17 30 -10 49 10 25 21 15 20 -18z m-124 -4 c0 -17 -22 -14 -28 4 -2 7 3 12
12 12 9 0 16 -7 16 -16z m490 -26 c0 -21 -3 -29 -10 -22 -5 5 -7 19 -4 32 9
31 14 27 14 -10z m-570 2 c0 -11 -4 -20 -10 -20 -5 0 -10 9 -10 20 0 11 5 20
10 20 6 0 10 -9 10 -20z m904 1 c6 -10 -22 -37 -29 -29 -8 7 5 38 15 38 5 0
11 -4 14 -9z m-294 -35 c0 -7 -7 -19 -15 -26 -13 -11 -15 -9 -11 11 3 13 5 25
5 27 3 9 21 -1 21 -12z m-2977 -29 c3 -7 -1 -21 -8 -30 -12 -17 -13 -17 -17 0
-9 34 13 60 25 30z m47 -13 c0 -8 -4 -12 -10 -9 -5 3 -10 13 -10 21 0 8 5 12
10 9 6 -3 10 -13 10 -21z m-24 -121 c-11 -11 -17 4 -9 23 7 18 8 18 11 1 2
-10 1 -21 -2 -24z m-138 -107 c10 -34 5 -59 -9 -51 -4 3 -6 12 -3 20 3 7 0 24
-7 37 -7 13 -14 29 -15 36 -5 27 26 -10 34 -42z m3062 24 c0 -5 -7 -10 -16
-10 -8 0 -12 5 -9 10 3 6 10 10 16 10 5 0 9 -4 9 -10z m38 -42 c-2 -6 -10 -14
-16 -16 -7 -2 -10 2 -6 12 7 18 28 22 22 4z m72 -3 c0 -8 -7 -15 -15 -15 -26
0 -18 20 13 29 1 1 2 -6 2 -14z m125 -35 c-3 -5 -1 -11 5 -15 15 -9 12 -35 -3
-29 -7 2 -14 18 -15 35 -2 19 1 28 8 24 6 -3 8 -10 5 -15z m-221 -41 c-15 -17
-15 -19 -1 -25 20 -7 31 -52 17 -69 -6 -8 -19 -11 -27 -8 -12 5 -15 2 -10 -10
7 -18 -1 -22 -19 -9 -9 6 -10 51 -2 120 4 29 28 45 45 30 11 -9 10 -14 -3 -29z
m306 -23 c0 -3 -4 -8 -10 -11 -5 -3 -10 -1 -10 4 0 6 5 11 10 11 6 0 10 -2 10
-4z m-75 -46 c22 -25 8 -45 -24 -35 -20 6 -28 34 -14 48 10 11 19 8 38 -13z
m-3931 -16 c5 -14 4 -15 -9 -4 -17 14 -19 20 -6 20 5 0 12 -7 15 -16z m3789
-4 c-3 -11 -10 -23 -16 -27 -5 -3 -8 -2 -5 3 3 5 8 17 11 27 9 24 16 22 10 -3z
m-3678 -11 c3 -4 1 -10 -5 -14 -11 -7 -53 19 -44 27 7 7 43 -2 49 -13z m3915
11 c0 -5 -4 -10 -10 -10 -5 0 -10 5 -10 10 0 6 5 10 10 10 6 0 10 -4 10 -10z
m-3670 -50 c0 -11 -7 -20 -15 -20 -18 0 -19 12 -3 28 16 16 18 15 18 -8z m77
-8 c-11 -2 -16 -9 -13 -18 3 -8 0 -14 -7 -14 -15 0 -43 18 -37 22 16 13 57 25
65 19 6 -3 2 -7 -8 -9z m3321 -2 c-14 -22 -24 -19 -15 5 4 8 11 15 17 15 6 0
6 -7 -2 -20z m-3468 -14 c0 -9 -7 -12 -20 -9 -11 3 -20 9 -20 14 0 5 9 9 20 9
11 0 20 -6 20 -14z m3665 -37 c-4 -5 -13 -9 -22 -9 -13 0 -13 3 -3 15 13 15
35 11 25 -6z m-3850 -9 c-13 -5 -15 -9 -7 -14 17 -10 5 -27 -13 -19 -18 6 -20
40 -2 46 6 2 18 2 26 -1 11 -4 10 -7 -4 -12z m4052 -72 c-2 -13 -4 -5 -4 17
-1 22 1 32 4 23 2 -10 2 -28 0 -40z m83 26 c0 -8 -5 -12 -10 -9 -6 4 -8 11 -5
16 9 14 15 11 15 -7z m-4130 -25 c0 -5 -4 -9 -10 -9 -5 0 -10 7 -10 16 0 8 5
12 10 9 6 -3 10 -10 10 -16z m3890 -29 c0 -14 0 -17 10 -50 5 -18 5 -30 -1
-30 -5 0 -9 5 -9 12 0 6 -6 3 -14 -7 -13 -18 -14 -14 -10 30 1 28 3 51 4 53 1
7 20 0 20 -8z m-3517 -47 c-3 -7 -9 -13 -14 -13 -14 0 -22 27 -15 47 6 15 8
14 20 -3 8 -10 12 -24 9 -31z m3438 20 c-8 -15 -10 -15 -11 -2 0 17 10 32 18
25 2 -3 -1 -13 -7 -23z m215 -28 c4 -14 4 -29 0 -32 -11 -11 -39 25 -33 41 9
24 26 19 33 -9z m-3938 -11 c14 -10 22 -25 21 -42 -1 -17 -3 -21 -6 -9 -5 20
-23 23 -23 3 0 -7 -10 -17 -22 -20 -21 -6 -21 -7 -6 -16 9 -6 15 -17 12 -25
-5 -11 -11 -11 -30 -3 -26 12 -33 48 -9 48 10 0 13 10 11 35 -2 30 4 41 24 44
3 1 16 -6 28 -15z m4048 -49 c6 -32 1 -56 -10 -44 -10 11 -16 79 -7 79 6 0 13
-16 17 -35z m-146 15 c0 -5 -5 -10 -11 -10 -5 0 -7 5 -4 10 3 6 8 10 11 10 2
0 4 -4 4 -10z m-4220 -76 c0 -12 -5 -26 -10 -29 -13 -8 -29 33 -22 57 6 26 32
3 32 -28z m124 20 c10 -25 7 -34 -9 -34 -9 0 -15 9 -15 25 0 28 15 34 24 9z
m4416 -9 c0 -8 -4 -15 -10 -15 -5 0 -10 7 -10 15 0 8 5 15 10 15 6 0 10 -7 10
-15z m-230 -10 c0 -7 8 -19 18 -24 11 -7 13 -10 3 -11 -9 0 -12 -8 -9 -25 3
-14 -1 -30 -8 -36 -10 -8 -14 -8 -15 0 -2 14 -6 48 -8 60 0 5 -10 11 -21 14
-13 3 -18 10 -14 21 8 20 54 21 54 1z m120 -24 c0 -31 -18 -45 -41 -31 -11 7
-9 14 11 34 13 15 25 26 27 26 2 0 3 -13 3 -29z m-814 -57 c-22 -21 -38 -17
-19 5 9 11 20 18 25 15 4 -3 2 -12 -6 -20z m-3488 -27 c-7 -14 -13 -17 -16 -9
-6 19 6 44 18 37 7 -4 6 -14 -2 -28z m-63 -6 c7 -13 -32 -34 -46 -26 -7 5 -6
11 2 21 13 16 35 18 44 5z m4535 -50 c0 -25 -11 -33 -26 -20 -10 8 -10 15 -2
29 14 22 28 17 28 -9z m-3774 -28 c-7 -7 -26 7 -26 19 0 6 6 6 15 -2 9 -7 13
-15 11 -17z m3574 -7 c0 -3 -4 -8 -10 -11 -5 -3 -10 -1 -10 4 0 6 5 11 10 11
6 0 10 -2 10 -4z m57 -18 c-3 -8 -6 -5 -6 6 -1 11 2 17 5 13 3 -3 4 -12 1 -19z
m-1108 -132 c-6 -13 -27 -32 -45 -42 -19 -10 -34 -22 -34 -26 0 -3 -8 -9 -17
-12 -10 -3 -29 -16 -43 -29 -14 -13 -74 -63 -135 -112 -60 -48 -113 -93 -117
-99 -5 -7 -8 -5 -8 5 0 20 43 60 155 145 50 37 99 76 109 86 11 10 24 18 29
18 12 0 79 51 95 72 19 25 23 22 11 -6z m-2383 -61 c130 -107 268 -245 245
-245 -6 0 -11 3 -11 8 0 4 -11 14 -24 22 -57 36 -286 251 -286 269 0 9 4 9 14
-1 7 -7 35 -31 62 -53z m3650 16 c-12 -19 -24 -12 -19 10 4 13 9 17 15 11 6
-6 7 -15 4 -21z m-1616 4 c0 -8 -4 -15 -9 -15 -13 0 -22 16 -14 24 11 11 23 6
23 -9z m1685 -5 c3 -5 -1 -10 -10 -10 -9 0 -13 5 -10 10 3 6 8 10 10 10 2 0 7
-4 10 -10z m-155 -14 c0 -3 -4 -8 -10 -11 -5 -3 -10 -1 -10 4 0 6 5 11 10 11
6 0 10 -2 10 -4z m124 -21 c-4 -8 -8 -15 -10 -15 -2 0 -4 7 -4 15 0 8 4 15 10
15 5 0 7 -7 4 -15z m-54 -27 c0 -26 -17 -41 -35 -31 -16 9 -16 11 0 26 20 20
35 22 35 5z m-86 -34 c8 -21 -7 -17 -21 6 -11 16 -10 18 1 14 8 -3 17 -12 20
-20z m-1697 -247 c3 -20 2 -21 -13 -5 -9 9 -13 21 -9 28 9 15 18 6 22 -23z
m-1377 8 c0 -8 -4 -15 -9 -15 -5 0 -14 7 -21 15 -10 13 -9 15 9 15 12 0 21 -6
21 -15z"/>
<path d="M2368 3972 c-14 -3 -47 -70 -36 -75 1 -1 17 -10 34 -19 29 -16 31
-16 46 1 24 28 31 60 18 76 -7 8 -17 12 -22 9 -6 -4 -13 -2 -17 3 -3 5 -14 7
-23 5z"/>
<path d="M2162 3855 c-29 -13 -32 -17 -22 -35 13 -24 57 -37 79 -23 9 6 17 24
19 42 3 27 0 31 -20 31 -13 -1 -38 -7 -56 -15z"/>
<path d="M1970 3793 c0 -12 -5 -23 -11 -25 -7 -2 -9 -13 -5 -26 10 -30 30 -28
22 2 -4 18 -2 25 9 28 14 3 14 5 1 23 -15 20 -15 20 -16 -2z"/>
<path d="M2690 3920 c0 -5 5 -10 10 -10 6 0 10 5 10 10 0 6 -4 10 -10 10 -5 0
-10 -4 -10 -10z"/>
<path d="M2765 3910 c4 -6 11 -8 16 -5 14 9 11 15 -7 15 -8 0 -12 -5 -9 -10z"/>
<path d="M3150 3865 c0 -14 25 -27 34 -18 11 11 6 21 -14 26 -12 3 -20 0 -20
-8z"/>
<path d="M2983 3833 c-7 -2 -13 -11 -13 -19 0 -8 -3 -14 -8 -14 -4 0 -6 -17
-4 -38 4 -44 40 -69 75 -51 15 8 22 8 29 -2 6 -10 7 -7 3 9 -8 28 14 61 26 40
4 -7 11 -9 15 -5 9 9 -26 48 -37 41 -5 -3 -9 -1 -9 4 0 5 -12 15 -27 23 -38
18 -36 18 -50 12z"/>
<path d="M3200 3771 c0 -6 5 -13 10 -16 6 -3 10 1 10 9 0 9 -4 16 -10 16 -5 0
-10 -4 -10 -9z"/>
<path d="M3350 3937 c0 -8 6 -14 14 -14 8 0 12 6 9 14 -3 7 -9 13 -14 13 -5 0
-9 -6 -9 -13z"/>
<path d="M1435 3480 c-3 -5 -1 -10 4 -10 6 0 11 5 11 10 0 6 -2 10 -4 10 -3 0
-8 -4 -11 -10z"/>
<path d="M1672 3444 c-51 -21 -65 -54 -59 -131 3 -38 8 -79 11 -93 5 -22 18
-77 21 -90 1 -3 5 -26 9 -52 10 -58 22 -61 35 -10 5 20 14 55 20 77 6 22 33
85 61 140 27 55 50 105 50 111 0 16 -47 45 -86 54 -19 5 -43 2 -62 -6z"/>
<path d="M3210 3440 c-44 -8 -77 -29 -83 -51 -3 -10 12 -39 33 -68 53 -71 97
-189 99 -265 1 -45 15 -21 50 89 37 116 45 174 30 227 -13 51 -67 79 -129 68z"/>
<path d="M1400 3360 c0 -5 5 -10 10 -10 6 0 10 5 10 10 0 6 -4 10 -10 10 -5 0
-10 -4 -10 -10z"/>
<path d="M1313 3275 c-18 -19 -16 -27 4 -23 9 2 17 11 19 21 3 20 -6 21 -23 2z"/>
<path d="M3766 3268 c-9 -34 -8 -38 9 -38 8 0 15 -9 15 -20 0 -11 5 -20 10
-20 6 0 10 7 10 16 0 8 4 13 9 10 5 -3 7 -15 4 -26 -3 -12 0 -20 8 -20 7 0 10
3 6 6 -3 4 0 13 8 20 19 20 -1 69 -29 72 -11 0 -22 6 -24 12 -6 17 -19 11 -26
-12z"/>
<path d="M1350 3246 c0 -17 -25 -27 -47 -19 -11 4 -14 3 -9 -5 5 -8 0 -12 -12
-12 -23 0 -37 -26 -18 -33 7 -3 19 -1 27 4 8 5 24 9 37 9 15 0 22 6 22 20 0
11 7 20 15 20 8 0 15 4 15 9 0 5 -7 11 -15 15 -9 3 -15 0 -15 -8z"/>
<path d="M3716 3252 c-7 -12 22 -38 31 -28 4 3 0 14 -9 22 -9 10 -18 12 -22 6z"/>
<path d="M3860 3190 c0 -5 5 -10 11 -10 5 0 7 5 4 10 -3 6 -8 10 -11 10 -2 0
-4 -4 -4 -10z"/>
<path d="M1385 3180 c3 -5 8 -10 11 -10 2 0 4 5 4 10 0 6 -5 10 -11 10 -5 0
-7 -4 -4 -10z"/>
<path d="M3900 3180 c0 -5 5 -10 10 -10 6 0 10 5 10 10 0 6 -4 10 -10 10 -5 0
-10 -4 -10 -10z"/>
<path d="M3886 3134 c-9 -23 -2 -28 13 -10 7 8 8 17 3 20 -6 3 -13 -1 -16 -10z"/>
<path d="M1242 3123 c-16 -29 -15 -36 2 -30 8 3 20 -1 26 -8 10 -12 7 -17 -14
-25 -17 -6 -24 -14 -20 -25 6 -14 8 -14 24 0 21 19 36 19 44 -1 8 -22 26 -7
26 23 0 16 -7 27 -20 30 -11 3 -20 12 -20 19 0 8 -6 14 -14 14 -8 0 -16 6 -18
12 -3 8 -9 5 -16 -9z"/>
<path d="M3740 3090 c0 -19 3 -21 12 -12 9 9 9 15 0 24 -9 9 -12 7 -12 -12z"/>
<path d="M1200 3075 c0 -8 4 -15 10 -15 5 0 7 7 4 15 -4 8 -8 15 -10 15 -2 0
-4 -7 -4 -15z"/>
<path d="M3845 3080 c-3 -5 -1 -10 4 -10 6 0 11 5 11 10 0 6 -2 10 -4 10 -3 0
-8 -4 -11 -10z"/>
<path d="M3880 3044 c0 -8 5 -12 10 -9 6 4 8 11 5 16 -9 14 -15 11 -15 -7z"/>
<path d="M3667 3003 c-4 -3 -7 -13 -7 -20 0 -20 23 -11 26 10 2 17 -7 22 -19
10z"/>
<path d="M3700 2999 c0 -5 5 -7 10 -4 6 3 10 8 10 11 0 2 -4 4 -10 4 -5 0 -10
-5 -10 -11z"/>
<path d="M3900 2979 c0 -5 5 -7 10 -4 6 3 10 8 10 11 0 2 -4 4 -10 4 -5 0 -10
-5 -10 -11z"/>
<path d="M3860 2970 c0 -5 5 -10 11 -10 5 0 7 5 4 10 -3 6 -8 10 -11 10 -2 0
-4 -4 -4 -10z"/>
<path d="M3975 2970 c-3 -5 -1 -10 4 -10 6 0 11 5 11 10 0 6 -2 10 -4 10 -3 0
-8 -4 -11 -10z"/>
<path d="M1209 2954 c-1 -5 -1 -12 -1 -15 1 -4 -9 -4 -21 -1 -20 5 -20 3 6
-23 23 -24 30 -26 37 -15 5 9 4 20 -3 29 -7 8 -10 16 -9 18 2 3 1 7 -2 11 -3
3 -7 1 -7 -4z"/>
<path d="M3934 2914 c3 -9 6 -22 6 -30 0 -8 7 -14 15 -14 8 0 15 6 15 14 0 26
-12 46 -27 46 -10 0 -13 -6 -9 -16z"/>
<path d="M3745 2910 c-3 -5 -2 -10 4 -10 5 0 13 5 16 10 3 6 2 10 -4 10 -5 0
-13 -4 -16 -10z"/>
<path d="M3583 2875 c-10 -10 -9 -16 2 -25 16 -13 25 -2 16 21 -5 14 -8 15
-18 4z"/>
<path d="M3790 2874 c0 -8 5 -12 10 -9 6 4 8 11 5 16 -9 14 -15 11 -15 -7z"/>
<path d="M3896 2875 c-3 -9 0 -15 9 -15 8 0 15 7 15 15 0 8 -4 15 -9 15 -5 0
-11 -7 -15 -15z"/>
<path d="M4005 2851 c-6 -5 -19 -11 -30 -13 -19 -4 -19 -4 1 -10 14 -3 25 1
33 13 12 21 11 24 -4 10z"/>
<path d="M3515 2831 c-3 -5 -1 -12 5 -16 5 -3 10 1 10 9 0 18 -6 21 -15 7z"/>
<path d="M3860 2819 c0 -5 5 -7 10 -4 6 3 10 8 10 11 0 2 -4 4 -10 4 -5 0 -10
-5 -10 -11z"/>
<path d="M3707 2793 c-4 -3 -7 -15 -7 -25 0 -21 25 -24 33 -4 6 16 -16 40 -26
29z"/>
<path d="M3974 2785 c-10 -8 -14 -15 -9 -15 6 -1 1 -5 -10 -10 -18 -8 -17 -9
7 -9 19 -1 29 5 33 20 9 27 3 32 -21 14z"/>
<path d="M3550 2720 c0 -5 5 -10 10 -10 6 0 10 5 10 10 0 6 -4 10 -10 10 -5 0
-10 -4 -10 -10z"/>
<path d="M2455 2578 c-62 -33 -115 -151 -117 -260 -2 -86 31 -116 106 -96 36
9 50 9 69 -1 36 -19 63 -6 86 43 27 54 26 99 0 181 -34 103 -95 159 -144 133z"/>
<path d="M3849 2541 c-14 -12 -18 -20 -11 -21 15 0 47 28 40 36 -3 2 -16 -4
-29 -15z"/>
<path d="M4050 3220 c0 -5 5 -10 10 -10 6 0 10 5 10 10 0 6 -4 10 -10 10 -5 0
-10 -4 -10 -10z"/>
<path d="M705 2459 c-10 -15 1 -23 20 -15 9 3 13 10 10 16 -8 13 -22 13 -30
-1z"/>
<path d="M4210 2420 c0 -5 7 -10 16 -10 8 0 12 5 9 10 -3 6 -10 10 -16 10 -5
0 -9 -4 -9 -10z"/>
<path d="M4155 2310 c3 -5 11 -10 16 -10 6 0 7 5 4 10 -3 6 -11 10 -16 10 -6
0 -7 -4 -4 -10z"/>
<path d="M752 2298 c-15 -19 2 -48 19 -31 7 7 8 17 2 28 -8 13 -11 14 -21 3z"/>
<path d="M4135 2290 c3 -5 8 -10 11 -10 2 0 4 5 4 10 0 6 -5 10 -11 10 -5 0
-7 -4 -4 -10z"/>
<path d="M81 2276 c-8 -10 -8 -16 3 -25 11 -9 15 -7 19 9 6 25 -7 35 -22 16z"/>
<path d="M4048 2283 c6 -2 18 -2 25 0 6 3 1 5 -13 5 -14 0 -19 -2 -12 -5z"/>
<path d="M3956 2263 c-9 -9 -7 -33 3 -33 12 0 22 28 12 34 -5 3 -11 3 -15 -1z"/>
<path d="M220 2240 c0 -5 5 -10 10 -10 6 0 10 5 10 10 0 6 -4 10 -10 10 -5 0
-10 -4 -10 -10z"/>
<path d="M4385 2230 c-3 -5 1 -10 10 -10 9 0 13 5 10 10 -3 6 -8 10 -10 10 -2
0 -7 -4 -10 -10z"/>
<path d="M840 2220 c0 -5 5 -10 11 -10 5 0 7 5 4 10 -3 6 -8 10 -11 10 -2 0
-4 -4 -4 -10z"/>
<path d="M745 2210 c3 -5 8 -10 11 -10 2 0 4 5 4 10 0 6 -5 10 -11 10 -5 0 -7
-4 -4 -10z"/>
<path d="M196 2195 c4 -8 8 -15 10 -15 2 0 4 7 4 15 0 8 -4 15 -10 15 -5 0 -7
-7 -4 -15z"/>
<path d="M650 2171 c0 -6 5 -13 10 -16 6 -3 10 1 10 9 0 9 -4 16 -10 16 -5 0
-10 -4 -10 -9z"/>
<path d="M217 2163 c-4 -3 -7 -11 -7 -17 0 -6 5 -5 12 2 6 6 9 14 7 17 -3 3
-9 2 -12 -2z"/>
<path d="M820 2160 c0 -5 5 -10 10 -10 6 0 10 5 10 10 0 6 -4 10 -10 10 -5 0
-10 -4 -10 -10z"/>
<path d="M883 2153 c-7 -3 -13 -11 -13 -19 0 -8 -9 -22 -20 -31 -44 -38 -13
-73 40 -46 29 14 31 18 25 52 -7 41 -15 50 -32 44z"/>
<path d="M930 2129 c-13 -8 -12 -12 5 -25 18 -14 20 -13 23 2 5 22 -10 35 -28
23z"/>
<path d="M34 2092 c-9 -24 -8 -30 12 -45 28 -21 32 -21 37 1 4 18 -19 72 -31
72 -4 0 -12 -13 -18 -28z"/>
<path d="M4450 2090 c0 -6 7 -10 15 -10 8 0 15 2 15 4 0 2 -7 6 -15 10 -8 3
-15 1 -15 -4z"/>
<path d="M725 2058 c-17 -16 -17 -20 -5 -28 21 -13 36 -12 48 3 8 10 7 17 -6
28 -16 13 -20 13 -37 -3z"/>
<path d="M4165 2061 c-3 -5 -1 -12 5 -16 5 -3 10 1 10 9 0 18 -6 21 -15 7z"/>
<path d="M930 2044 c0 -8 5 -12 10 -9 6 4 8 11 5 16 -9 14 -15 11 -15 -7z"/>
<path d="M90 2020 c0 -5 5 -10 10 -10 6 0 10 5 10 10 0 6 -4 10 -10 10 -5 0
-10 -4 -10 -10z"/>
<path d="M3940 2016 c0 -9 5 -16 10 -16 6 0 10 4 10 9 0 6 -4 13 -10 16 -5 3
-10 -1 -10 -9z"/>
<path d="M1230 2008 c1 -14 50 -54 50 -41 0 14 -30 53 -41 53 -5 0 -9 -6 -9
-12z"/>
<path d="M963 1964 c-9 -20 -9 -26 2 -30 20 -8 34 3 30 24 -2 9 -4 20 -4 25
-2 15 -17 6 -28 -19z"/>
<path d="M4210 1971 c0 -6 5 -13 10 -16 6 -3 10 1 10 9 0 9 -4 16 -10 16 -5 0
-10 -4 -10 -9z"/>
<path d="M810 1946 c0 -16 27 -29 35 -16 3 5 -4 14 -15 20 -16 8 -20 8 -20 -4z"/>
<path d="M1177 1927 c-14 -18 -22 -38 -19 -44 12 -19 61 -27 77 -13 20 17 18
30 -9 63 l-23 28 -26 -34z"/>
<path d="M4480 1950 c0 -5 5 -10 11 -10 5 0 7 5 4 10 -3 6 -8 10 -11 10 -2 0
-4 -4 -4 -10z"/>
<path d="M5050 1935 c0 -14 29 -35 49 -35 17 0 13 21 -6 36 -24 18 -43 17 -43
-1z"/>
<path d="M3915 1930 c3 -5 11 -10 16 -10 6 0 7 5 4 10 -3 6 -11 10 -16 10 -6
0 -7 -4 -4 -10z"/>
<path d="M4121 1926 c-9 -10 -8 -15 4 -20 10 -4 15 1 15 14 0 24 -4 25 -19 6z"/>
<path d="M922 1870 c-17 -27 -15 -30 11 -30 32 0 38 8 24 31 -15 24 -19 24
-35 -1z"/>
<path d="M1053 1883 c-15 -5 -18 -43 -3 -43 12 0 32 38 23 43 -5 2 -14 2 -20
0z"/>
<path d="M1285 1881 c-3 -5 -1 -12 5 -16 5 -3 10 1 10 9 0 18 -6 21 -15 7z"/>
<path d="M4767 1866 c-3 -8 -2 -18 3 -21 13 -8 24 15 12 27 -6 6 -11 4 -15 -6z"/>
<path d="M810 1835 c0 -9 5 -15 11 -13 6 2 11 8 11 13 0 5 -5 11 -11 13 -6 2
-11 -4 -11 -13z"/>
<path d="M1317 1808 c-6 -22 9 -41 25 -32 4 3 8 16 8 30 0 30 -26 32 -33 2z"/>
<path d="M3869 1780 c-68 -19 -179 -84 -266 -158 -36 -30 -53 -39 -53 -28 0
23 -23 20 -38 -4 -10 -17 -10 -21 3 -26 12 -5 11 -9 -5 -23 -12 -9 -42 -47
-68 -86 -26 -39 -60 -76 -77 -84 l-29 -14 70 -22 c48 -16 106 -25 192 -29 70
-4 135 -12 150 -20 16 -8 57 -13 102 -12 85 2 161 31 218 83 l32 31 6 -24 c4
-15 0 -34 -10 -49 -9 -13 -16 -31 -16 -39 0 -7 -7 -17 -16 -20 -11 -4 -15 0
-14 17 3 38 1 39 -30 17 -34 -24 -37 -40 -14 -74 10 -16 12 -26 5 -31 -13 -7
-113 10 -139 24 -75 40 -342 72 -342 41 0 -5 21 -10 47 -10 74 0 169 -28 288
-85 153 -74 208 -84 287 -55 81 30 159 110 179 183 21 80 11 241 -20 312 -34
76 -155 159 -252 172 -21 3 -39 9 -39 13 0 9 -116 9 -151 0z m118 -135 c30
-21 35 -63 13 -112 -16 -36 -22 -41 -42 -36 -20 6 -21 4 -11 -9 16 -19 -11
-45 -87 -85 -53 -27 -61 -28 -205 -29 -99 0 -139 3 -117 8 44 12 40 23 -8 22
-45 -1 -61 -11 -40 -24 11 -7 8 -10 -13 -10 -28 0 -28 0 -10 25 22 30 115 81
166 90 33 7 37 5 37 -14 0 -21 10 -27 23 -14 4 3 2 12 -4 20 -6 7 -8 13 -3 14
5 1 21 2 37 3 35 4 39 9 42 46 7 81 156 151 222 105z m197 -40 c10 -20 17 -50
16 -68 0 -18 -1 -48 -1 -67 0 -47 -24 -114 -42 -118 -21 -4 -28 82 -11 126 11
28 11 45 -1 103 -18 87 -19 82 4 70 10 -6 26 -26 35 -46z"/>
<path d="M3902 1593 c-6 -2 -10 -9 -7 -13 7 -11 35 -2 35 11 0 10 -8 10 -28 2z"/>
<path d="M3870 1541 c0 -6 5 -13 10 -16 6 -3 10 1 10 9 0 9 -4 16 -10 16 -5 0
-10 -4 -10 -9z"/>
<path d="M3839 1518 c4 -13 6 -29 4 -35 -6 -16 4 -17 21 -1 11 11 11 17 -1 35
-20 30 -35 30 -24 1z"/>
<path d="M3787 1524 c-8 -8 1 -24 14 -24 5 0 9 7 9 15 0 15 -12 20 -23 9z"/>
<path d="M3910 1495 c0 -5 5 -17 10 -25 5 -8 10 -10 10 -5 0 6 -5 17 -10 25
-5 8 -10 11 -10 5z"/>
<path d="M3730 1450 c0 -11 39 -20 45 -10 3 4 -6 10 -20 12 -14 3 -25 2 -25
-2z"/>
<path d="M985 1771 c-93 -26 -198 -108 -234 -184 -63 -133 -37 -348 54 -434
95 -89 279 -106 360 -33 62 56 265 128 329 117 20 -3 38 -2 41 3 8 13 -76 23
-143 16 -37 -3 -93 -20 -143 -42 -48 -21 -91 -34 -105 -31 -14 2 -27 0 -30 -4
-8 -14 -21 -11 -28 6 -3 8 4 24 16 34 l20 20 -26 24 c-14 13 -26 31 -26 38 -1
10 -4 9 -14 -4 -13 -16 -15 -16 -24 13 -14 37 -7 37 65 1 88 -45 131 -52 191
-31 52 18 135 30 257 35 39 2 87 10 107 18 20 8 39 13 41 10 7 -6 24 28 22 47
0 9 -8 14 -18 12 -9 -2 -20 5 -24 15 -11 29 -55 84 -102 127 -24 23 -49 46
-56 52 -49 48 -238 157 -297 170 -42 10 -203 13 -233 5z m204 -107 c68 -19
105 -64 106 -129 0 -22 5 -39 10 -38 6 0 26 4 46 7 26 4 41 1 50 -10 7 -8 18
-13 25 -10 16 6 111 -28 143 -52 13 -10 30 -27 38 -38 13 -20 12 -20 -54 -16
-38 2 -77 3 -88 2 -144 -12 -314 32 -387 100 -42 39 -31 151 19 182 34 21 26
21 92 2z m-263 -90 c-2 -36 -9 -71 -14 -76 -19 -19 31 -88 63 -88 12 0 15 -5
11 -16 -4 -9 -1 -23 6 -32 7 -8 13 -25 13 -37 1 -19 -4 -22 -27 -21 -31 2 -50
16 -30 23 14 5 17 33 3 33 -6 0 -12 -4 -16 -10 -6 -10 -35 -3 -33 8 1 4 -4 21
-11 37 -14 34 -26 134 -22 187 1 17 38 58 53 58 4 0 6 -30 4 -66z m665 -91
c13 -16 12 -17 -3 -4 -10 7 -18 15 -18 17 0 8 8 3 21 -13z m-582 -264 c-14 -8
-29 -3 -29 11 0 4 9 6 21 3 15 -4 17 -8 8 -14z"/>
<path d="M1136 1602 c-9 -14 6 -52 20 -52 19 0 23 12 13 38 -8 22 -24 29 -33
14z"/>
<path d="M1170 1499 c0 -6 6 -9 13 -6 6 2 17 -3 24 -12 10 -14 12 -13 10 7 -1
16 -8 22 -24 22 -13 0 -23 -5 -23 -11z"/>
<path d="M1183 1453 c9 -2 17 -9 17 -14 0 -6 5 -7 11 -3 14 8 -8 24 -31 23
-11 -1 -10 -3 3 -6z"/>
<path d="M1312 1415 c-11 -12 -10 -15 3 -15 8 0 15 7 15 15 0 18 -2 18 -18 0z"/>
<path d="M1465 1410 c3 -5 11 -10 16 -10 6 0 7 5 4 10 -3 6 -11 10 -16 10 -6
0 -7 -4 -4 -10z"/>
<path d="M2020 1760 c0 -5 5 -10 11 -10 5 0 7 5 4 10 -3 6 -8 10 -11 10 -2 0
-4 -4 -4 -10z"/>
<path d="M1940 1723 c-19 -25 -20 -28 -5 -31 21 -5 23 -3 29 31 6 34 3 34 -24
0z"/>
<path d="M2215 1710 c3 -5 10 -10 16 -10 5 0 9 5 9 10 0 6 -7 10 -16 10 -8 0
-12 -4 -9 -10z"/>
<path d="M2795 1680 c-3 -6 2 -13 12 -17 10 -4 21 -11 25 -17 11 -16 21 0 13
23 -7 22 -39 29 -50 11z"/>
<path d="M2452 1668 c6 -16 -57 -70 -85 -73 -41 -4 -41 -5 -31 -14 5 -5 20
-11 34 -13 18 -2 24 1 22 12 -2 8 -1 12 3 8 4 -3 8 -45 10 -93 4 -74 2 -86
-10 -81 -21 8 -19 0 7 -26 l21 -21 -22 -19 c-22 -17 -24 -17 -51 2 -24 17 -29
18 -40 5 -7 -8 -18 -15 -24 -15 -6 0 -24 -12 -39 -26 -34 -32 -74 -30 -69 4 3
22 2 22 -47 13 -2 -1 2 -7 8 -15 9 -11 9 -15 -1 -18 -7 -3 -19 9 -26 26 -10
24 -15 27 -22 16 -5 -8 -7 -17 -4 -21 2 -4 -8 -9 -23 -11 -20 -2 -28 -9 -28
-22 0 -11 -6 -21 -12 -23 -9 -3 -13 6 -13 26 0 17 5 31 10 31 6 0 10 11 10 25
0 31 -12 32 -25 3 -12 -26 -35 -36 -35 -14 0 9 -4 16 -10 16 -5 0 -10 -9 -10
-20 0 -11 6 -20 12 -20 7 0 -3 -8 -22 -19 -35 -18 -35 -18 -43 3 -8 21 -9 21
-23 1 -9 -13 -12 -31 -8 -55 9 -45 12 -48 20 -16 7 30 12 31 41 11 19 -13 20
-19 11 -45 -5 -17 -16 -30 -23 -30 -25 0 -27 -20 -6 -53 18 -30 19 -36 6 -54
-13 -19 -13 -23 0 -37 21 -21 19 -26 -11 -26 -26 0 -26 -1 -10 -25 27 -40 -6
-32 -38 10 -15 19 -24 35 -21 35 3 0 -2 13 -12 30 -18 31 -37 38 -49 18 -12
-19 -34 21 -27 52 3 15 0 31 -6 34 -7 4 -11 -1 -11 -12 0 -10 -3 -22 -7 -25
-10 -11 -33 13 -33 34 0 11 -7 19 -15 19 -8 0 -15 7 -15 15 0 8 -4 15 -10 15
-5 0 -10 9 -10 21 0 14 -6 19 -17 17 -10 -1 -23 1 -30 5 -7 4 -14 -1 -18 -13
-3 -11 -11 -20 -16 -20 -5 0 -9 -11 -9 -25 0 -14 -7 -28 -15 -32 -20 -7 -26
-1 -28 26 -1 11 -4 21 -7 21 -12 -1 -40 -28 -40 -39 0 -6 -4 -11 -10 -11 -5 0
-20 -10 -32 -22 -21 -21 -21 -21 -35 -2 -8 11 -23 18 -35 16 -12 -2 -18 1 -14
6 4 6 2 13 -3 16 -5 3 -11 -1 -15 -9 -3 -8 -2 -15 3 -15 15 0 19 -49 5 -61
-14 -11 -52 -4 -41 7 3 4 -1 13 -9 21 -8 9 -16 14 -17 12 -1 -2 -8 -14 -15
-27 -20 -35 6 -76 48 -76 25 -1 35 -7 42 -26 5 -13 6 -21 2 -17 -4 3 -15 2
-25 -4 -14 -7 -23 -5 -36 10 -13 16 -20 18 -37 9 -15 -8 -21 -8 -24 1 -8 24
-46 51 -72 51 -14 0 -31 5 -37 11 -7 7 -12 2 -16 -18 -4 -19 -19 -35 -47 -51
-26 -15 -40 -29 -38 -40 2 -10 -7 -21 -19 -27 -13 -5 -23 -18 -23 -27 0 -11
-7 -18 -18 -18 -25 0 -42 -19 -35 -39 22 -61 225 -261 378 -373 251 -184 577
-319 880 -364 125 -18 519 -26 630 -11 140 18 275 42 360 63 108 28 409 150
580 236 104 52 303 194 349 249 l27 31 -83 80 c-46 44 -98 86 -116 94 -31 14
-37 13 -75 -5 -42 -21 -57 -20 -57 5 0 8 -5 14 -11 14 -5 0 -15 13 -20 29 -7
19 -21 33 -40 40 -37 13 -46 -3 -25 -44 8 -16 13 -32 10 -37 -12 -20 -33 -5
-51 37 -13 32 -26 48 -47 55 -33 11 -44 7 -29 -12 22 -28 23 -48 3 -48 -14 0
-20 7 -20 24 0 13 -6 27 -12 30 -10 5 -10 7 -1 12 18 8 3 35 -16 29 -22 -7
-61 29 -61 55 0 11 4 20 10 20 11 0 9 28 -3 48 -14 21 -65 15 -72 -9 -6 -19
-9 -19 -22 -7 -11 12 -12 20 -2 41 16 34 6 55 -25 55 -19 0 -26 -6 -26 -19 0
-10 -13 -25 -30 -34 -34 -17 -36 -12 -21 42 13 44 4 72 -20 66 -17 -5 -23 -15
-20 -36 1 -4 -6 -10 -14 -13 -19 -8 -45 13 -39 30 3 7 -6 20 -20 30 -31 20
-36 20 -36 2 0 -8 -6 -16 -14 -19 -16 -6 -46 22 -46 43 0 8 -8 4 -19 -9 l-20
-23 -20 40 c-11 22 -17 42 -14 46 3 3 0 12 -7 21 -10 13 -8 17 17 27 18 8 27
19 25 30 -4 19 -58 41 -76 31 -6 -4 -5 0 2 9 17 21 -3 35 -24 17 -8 -6 -18 -9
-21 -5 -4 4 -2 10 4 14 15 9 3 28 -17 27 -9 0 -14 -8 -12 -18 4 -24 -13 -21
-36 7 -10 13 -27 26 -38 28 -10 2 -26 12 -35 22 -11 14 -18 16 -23 8 -4 -7 -3
-12 3 -12 5 0 13 -9 16 -20 3 -11 18 -23 31 -26 34 -9 27 -38 -9 -42 -22 -3
-29 2 -37 24 -8 20 -8 29 2 35 10 6 9 9 -2 13 -34 10 -70 13 -70 4 0 -5 -9 -6
-21 -3 -20 7 -20 6 -6 -17 13 -20 14 -25 1 -36 -12 -11 -15 -10 -20 2 -3 9
-10 16 -15 16 -4 0 -6 -6 -3 -14 9 -24 -16 -29 -36 -6 -10 12 -24 19 -29 15
-6 -3 -11 1 -11 10 0 9 5 13 10 10 6 -3 10 -2 10 4 0 5 -4 12 -8 15 -5 3 -8
29 -6 58 1 30 -3 60 -9 68 -17 22 -90 63 -85 48z m108 -252 c0 -13 -7 -27 -15
-30 -12 -4 -15 0 -11 22 6 34 4 32 16 32 6 0 10 -11 10 -24z m169 -15 c12 -8
13 -14 3 -36 -14 -31 -32 -29 -49 6 -11 20 -10 25 5 31 23 9 25 9 41 -1z m171
-46 c0 -15 -6 -25 -14 -25 -16 0 -25 19 -18 38 8 22 32 13 32 -13z m-272 -20
c1 -12 -6 -25 -19 -33 -18 -12 -23 -11 -35 5 -18 25 -17 41 4 46 30 8 47 2 50
-18z m231 -37 c11 -11 18 -25 15 -30 -9 -14 16 -9 32 6 14 15 58 10 49 -5 -3
-4 2 -17 12 -29 21 -24 25 -70 6 -70 -18 0 -16 -19 2 -26 9 -4 15 -19 15 -38
0 -27 -4 -32 -21 -31 -11 1 -24 7 -29 15 -6 9 -10 7 -15 -8 -3 -13 -1 -27 7
-36 11 -12 15 -12 29 0 13 12 18 12 26 2 15 -19 4 -98 -13 -98 -8 0 -14 -4
-14 -9 0 -5 -3 -17 -6 -26 -5 -13 -2 -15 18 -10 24 6 25 5 23 -37 -1 -29 -6
-43 -16 -43 -24 0 -31 -36 -12 -57 17 -19 17 -20 -1 -30 -17 -9 -17 -12 -4
-22 20 -15 40 -54 30 -60 -16 -10 -73 10 -85 31 -4 7 -15 13 -22 13 -9 0 -15
10 -15 25 0 19 -5 25 -17 23 -14 -2 -19 5 -21 30 -2 22 1 32 10 30 7 -2 14 7
16 20 2 12 10 22 18 22 8 0 14 9 14 20 0 11 -7 20 -15 20 -8 0 -15 7 -15 15 0
8 -4 15 -9 15 -9 0 -7 48 3 57 6 7 56 -24 57 -35 0 -4 1 -27 2 -52 2 -36 6
-45 22 -49 17 -3 17 -1 6 12 -7 9 -10 25 -6 37 4 12 1 30 -7 43 -8 12 -20 41
-27 65 -9 31 -16 42 -27 38 -10 -4 -14 3 -14 24 0 19 -7 33 -20 40 -12 6 -20
21 -20 36 0 14 4 22 10 19 6 -3 10 -14 10 -23 0 -10 9 -23 19 -29 19 -12 19
-11 9 17 -5 17 -14 30 -19 30 -5 0 -9 5 -9 10 0 6 9 10 20 10 11 0 20 -3 20
-8 0 -4 10 -13 21 -21 18 -10 23 -10 30 0 5 9 -4 25 -27 46 -18 19 -37 45 -40
59 -6 22 -11 25 -35 20 -23 -4 -29 -2 -29 12 0 18 18 42 32 42 4 0 16 -10 27
-22z m-434 -80 c-18 -13 -28 23 -14 51 l13 26 6 -35 c3 -19 1 -38 -5 -42z
m-87 39 c4 -18 -14 -22 -37 -8 -7 5 -10 14 -6 20 10 17 39 9 43 -12z m232 -12
c0 -9 -10 -15 -25 -15 -26 0 -29 7 -19 34 7 19 44 3 44 -19z m130 6 c0 -10 3
-32 6 -50 5 -24 2 -32 -11 -37 -10 -4 -21 -1 -27 7 -7 11 -11 11 -15 1 -2 -6
-9 -10 -14 -6 -14 8 -11 50 6 64 8 7 15 19 15 26 0 8 9 14 20 14 13 0 20 -7
20 -19z m145 -21 c3 -5 -1 -10 -9 -10 -9 0 -16 5 -16 10 0 6 4 10 9 10 6 0 13
-4 16 -10z m-739 -15 c18 -14 18 -14 -8 -15 -18 0 -28 5 -28 15 0 19 11 19 36
0z m427 1 c21 -16 21 -20 1 -40 -23 -24 -31 -19 -26 15 3 22 1 30 -7 25 -6 -4
-11 -2 -11 3 0 15 21 13 43 -3z m-284 -27 c11 -18 11 -23 -1 -30 -20 -13 -26
-11 -38 11 -21 39 15 56 39 19z m201 -3 c0 -3 -4 -8 -10 -11 -5 -3 -10 -1 -10
4 0 6 5 11 10 11 6 0 10 -2 10 -4z m37 -28 c-3 -7 -5 -2 -5 12 0 14 2 19 5 13
2 -7 2 -19 0 -25z m-847 -33 c0 -8 -7 -15 -15 -15 -9 0 -12 6 -9 15 4 8 10 15
15 15 5 0 9 -7 9 -15z m923 -15 c15 -13 -5 -61 -29 -70 -21 -8 -22 -12 -11
-39 15 -41 0 -52 -28 -19 -13 15 -25 24 -29 21 -3 -3 -12 -3 -21 1 -13 4 -14
10 -5 26 6 11 18 20 26 20 11 0 13 6 9 20 -3 10 -1 29 5 40 9 17 17 20 43 15
18 -4 36 -10 40 -15z m524 4 c2 -6 -5 -14 -17 -17 -15 -4 -20 0 -20 15 0 21
30 23 37 2z m138 3 c10 -8 15 -19 11 -25 -9 -15 -36 -16 -36 -2 0 6 -7 10 -15
10 -16 0 -20 12 -8 23 10 11 27 8 48 -6z m-902 -47 c-3 -10 -13 -20 -24 -23
-10 -3 -17 -1 -14 3 3 5 1 11 -4 15 -7 4 -6 15 1 30 10 23 13 24 29 10 9 -9
15 -24 12 -35z m-834 -14 c17 -20 10 -60 -11 -64 -12 -2 -19 5 -24 22 -7 30
-12 32 -28 10 -10 -14 -14 -12 -26 10 -12 23 -11 28 5 46 16 17 20 18 44 5 15
-7 33 -20 40 -29z m124 37 c4 -3 -2 -13 -14 -21 -23 -16 -34 -10 -26 13 7 15
28 20 40 8z m83 -55 c3 -4 -6 -8 -20 -8 -14 0 -29 0 -33 -1 -4 0 -9 4 -11 10
-4 13 57 11 64 -1z m1018 -11 c18 -16 23 -30 19 -45 -6 -26 -10 -27 -29 -8
-14 15 -31 76 -21 76 3 0 17 -10 31 -23z m59 -44 c-8 -21 -20 -15 -26 14 -8
43 5 63 19 28 6 -16 10 -35 7 -42z m511 35 c-3 -5 -1 -14 4 -21 23 -28 -5 -94
-30 -69 -14 14 -18 81 -6 105 7 15 12 16 24 7 7 -7 11 -16 8 -22z m-1520 -13
c-4 -8 -10 -12 -15 -9 -11 6 -2 24 11 24 5 0 7 -7 4 -15z m212 -41 c-3 -9 -10
-12 -16 -9 -14 9 -12 53 3 58 13 4 22 -26 13 -49z m1126 -36 c-4 -39 -17 -52
-19 -20 -1 9 -2 22 -3 27 -1 6 -2 28 -1 50 l2 40 13 -30 c7 -16 11 -47 8 -67z
m-473 -5 c-9 -10 -7 -13 10 -13 19 0 20 -2 9 -20 -17 -26 -26 -25 -30 3 -2 16
-9 21 -26 20 -31 -4 -33 31 -5 74 l15 23 19 -37 c14 -27 16 -40 8 -50z m-369
26 c0 -28 -27 -23 -32 6 -3 13 -3 27 0 30 9 9 32 -17 32 -36z m-424 -43 c3
-27 0 -36 -10 -36 -18 0 -33 43 -17 48 6 2 11 11 11 20 0 27 11 5 16 -32z
m692 27 c-5 -25 -28 -28 -28 -4 0 12 6 21 16 21 9 0 14 -7 12 -17z m702 -16
c0 -27 -4 -33 -24 -35 -18 -1 -23 3 -21 16 2 9 4 25 4 35 1 10 9 17 21 17 16
0 20 -7 20 -33z m-2058 9 c10 -15 -8 -23 -42 -18 -22 3 -28 8 -21 16 12 15 54
16 63 2z m764 -33 c-10 -10 -19 5 -10 18 6 11 8 11 12 0 2 -7 1 -15 -2 -18z
m68 2 c-3 -7 0 -16 6 -20 8 -5 8 -11 -1 -21 -14 -17 -36 -18 -42 -1 -7 21 13
66 28 61 8 -3 11 -12 9 -19z m484 -11 c1 0 -6 -10 -16 -21 -22 -26 -52 -14
-52 22 0 30 19 37 45 16 11 -9 21 -16 23 -17z m-1144 -3 c-7 -37 -13 -39 -34
-11 -22 29 -19 38 14 38 21 0 24 -4 20 -27z m2130 -4 c2 -14 1 -29 -4 -32 -8
-5 -20 52 -12 60 8 7 10 3 16 -28z m-2274 15 c0 -13 -12 -22 -22 -16 -10 6 -1
24 13 24 5 0 9 -4 9 -8z m1344 -28 c5 -29 -15 -76 -28 -63 -16 16 -17 67 -1
83 21 20 22 19 29 -20z m-1518 -1 c-10 -10 -19 5 -10 18 6 11 8 11 12 0 2 -7
1 -15 -2 -18z m1587 -40 c-5 -12 -7 -12 -14 -1 -5 7 -9 19 -9 27 0 11 3 11 14
1 8 -6 12 -18 9 -27z m-1513 17 c0 -5 -4 -10 -9 -10 -6 0 -13 5 -16 10 -3 6 1
10 9 10 9 0 16 -4 16 -10z m2640 -62 c0 -10 -9 -22 -20 -28 -18 -10 -20 -8
-20 18 0 34 20 59 32 39 4 -6 8 -20 8 -29z m-458 -15 c11 -35 13 -54 5 -70
-13 -29 -26 -21 -19 13 3 15 0 29 -7 34 -7 4 -15 21 -17 38 -8 52 21 40 38
-15z m679 -24 c23 -23 25 -39 5 -39 -18 0 -53 48 -56 75 -4 37 1 40 16 12 8
-16 24 -37 35 -48z m-1355 34 c-10 -10 -19 5 -10 18 6 11 8 11 12 0 2 -7 1
-15 -2 -18z m-698 -10 c-4 -34 -28 -43 -28 -10 0 25 7 37 22 37 5 0 8 -12 6
-27z m548 -2 c0 -16 -4 -17 -18 -10 -12 6 -18 6 -18 -1 0 -5 -5 -10 -10 -10
-6 0 -3 11 6 24 17 28 40 26 40 -3z m72 -5 c-7 -11 -11 -24 -10 -28 4 -15 -17
-8 -27 9 -13 25 4 53 29 46 17 -4 18 -8 8 -27z m-824 -7 c-8 -14 -34 -11 -34
4 0 8 3 17 7 20 9 9 34 -13 27 -24z m516 -8 c0 -6 -4 -13 -10 -16 -5 -3 -10 1
-10 9 0 9 5 16 10 16 6 0 10 -4 10 -9z m1284 -22 c-8 -14 -24 -10 -24 6 0 9 6
12 15 9 8 -4 12 -10 9 -15z m326 -34 c0 -19 -5 -35 -10 -35 -6 0 -10 16 -8 35
1 19 6 35 10 35 4 0 8 -16 8 -35z m-1600 9 c0 -10 6 -14 15 -10 17 6 18 4 9
-18 -8 -20 -34 -21 -34 -2 0 8 -3 21 -6 30 -3 9 -1 16 5 16 6 0 11 -7 11 -16z
m185 -2 c0 -18 -20 -15 -23 4 -3 10 1 15 10 12 7 -3 13 -10 13 -16z m81 -19
c-11 -11 -19 6 -11 24 8 17 8 17 12 0 3 -10 2 -21 -1 -24z m-36 18 c0 -6 -4
-13 -10 -16 -5 -3 -10 1 -10 9 0 9 5 16 10 16 6 0 10 -4 10 -9z m-257 -17 c8
-8 -3 -34 -14 -34 -5 0 -9 9 -9 20 0 19 11 26 23 14z m837 -8 c0 -3 -4 -8 -10
-11 -5 -3 -10 -1 -10 4 0 6 5 11 10 11 6 0 10 -2 10 -4z m-545 -31 c0 -31 -32
-31 -37 0 -5 22 -2 26 16 23 13 -2 21 -10 21 -23z m1027 -29 c3 -14 2 -30 -2
-37 -12 -18 -30 -1 -26 24 3 12 5 25 5 30 2 17 19 5 23 -17z m-1152 -6 c0 -5
-7 -10 -15 -10 -8 0 -15 5 -15 10 0 6 7 10 15 10 8 0 15 -4 15 -10z m860 -4
c0 -8 -4 -17 -9 -21 -12 -7 -24 12 -16 25 9 15 25 12 25 -4z m-285 -6 c3 -5 1
-10 -4 -10 -6 0 -11 5 -11 10 0 6 2 10 4 10 3 0 8 -4 11 -10z m-463 -56 c-16
-11 -42 -9 -42 5 0 3 10 11 23 16 27 13 43 -4 19 -21z m465 -6 c-16 -10 -21
-2 -13 19 6 15 9 15 16 3 6 -9 5 -17 -3 -22z m-47 -67 c0 -32 -14 -49 -25 -31
-9 15 3 60 15 60 6 0 10 -13 10 -29z m15 -61 c3 -5 1 -10 -4 -10 -6 0 -11 5
-11 10 0 6 2 10 4 10 3 0 8 -4 11 -10z"/>
<path d="M1420 1060 c0 -5 5 -10 10 -10 6 0 10 5 10 10 0 6 -4 10 -10 10 -5 0
-10 -4 -10 -10z"/>
<path d="M2550 1650 c0 -5 10 -10 23 -10 18 0 19 2 7 10 -19 13 -30 13 -30 0z"/>
<path d="M2660 1657 c0 -12 39 -46 44 -38 10 16 -5 41 -25 41 -10 0 -19 -2
-19 -3z"/>
<path d="M2196 1642 c-2 -4 -1 -14 5 -22 7 -12 9 -10 9 8 0 23 -5 28 -14 14z"/>
<path d="M1559 1640 c0 -3 -2 -13 -4 -22 -2 -10 1 -20 6 -24 14 -8 23 26 10
39 -6 6 -11 9 -12 7z"/>
<path d="M1650 1615 c0 -8 7 -15 16 -15 14 0 14 3 4 15 -7 8 -14 15 -16 15 -2
0 -4 -7 -4 -15z"/>
<path d="M2580 1600 c0 -5 5 -10 11 -10 5 0 7 5 4 10 -3 6 -8 10 -11 10 -2 0
-4 -4 -4 -10z"/>
<path d="M2220 1591 c0 -13 28 -33 33 -23 3 4 -3 13 -14 20 -10 7 -19 8 -19 3z"/>
<path d="M3215 1590 c3 -5 8 -10 11 -10 2 0 4 5 4 10 0 6 -5 10 -11 10 -5 0
-7 -4 -4 -10z"/>
<path d="M2613 1565 c0 -8 4 -15 9 -15 4 0 8 7 8 15 0 8 -4 15 -8 15 -5 0 -9
-7 -9 -15z"/>
<path d="M3090 1560 c0 -13 5 -20 13 -17 6 2 12 10 12 17 0 7 -6 15 -12 18 -8
2 -13 -5 -13 -18z"/>
<path d="M1780 1542 c1 -16 29 -44 39 -37 17 10 13 21 -14 33 -14 6 -25 8 -25
4z"/>
<path d="M2230 1523 c0 -11 7 -26 15 -33 20 -17 20 7 0 34 -15 19 -15 19 -15
-1z"/>
<path d="M2595 1530 c3 -5 8 -10 11 -10 2 0 4 5 4 10 0 6 -5 10 -11 10 -5 0
-7 -4 -4 -10z"/>
<path d="M1636 1505 c4 -8 8 -15 10 -15 2 0 4 7 4 15 0 8 -4 15 -10 15 -5 0
-7 -7 -4 -15z"/>
<path d="M1699 1498 c4 -12 14 -22 22 -24 8 -1 22 -5 33 -10 16 -6 17 -5 7 15
-7 12 -23 26 -37 31 -34 13 -35 13 -25 -12z"/>
<path d="M3160 1510 c0 -5 5 -10 11 -10 5 0 7 5 4 10 -3 6 -8 10 -11 10 -2 0
-4 -4 -4 -10z"/>
<path d="M2260 1451 c0 -6 5 -13 10 -16 6 -3 10 1 10 9 0 9 -4 16 -10 16 -5 0
-10 -4 -10 -9z"/>
<path d="M2325 1420 c-3 -5 -1 -10 4 -10 6 0 11 5 11 10 0 6 -2 10 -4 10 -3 0
-8 -4 -11 -10z"/>
<path d="M2122 1405 c-35 -19 -46 -32 -33 -40 12 -7 71 31 71 46 0 12 -9 10
-38 -6z"/>
<path d="M2235 1400 c3 -5 13 -10 21 -10 8 0 14 5 14 10 0 6 -9 10 -21 10 -11
0 -17 -4 -14 -10z"/>
<path d="M2055 1390 c-3 -5 -1 -10 4 -10 6 0 11 5 11 10 0 6 -2 10 -4 10 -3 0
-8 -4 -11 -10z"/>
<path d="M2190 1391 c0 -18 12 -41 22 -41 7 0 6 5 -1 13 -6 8 -8 16 -5 19 3 3
1 9 -5 13 -6 3 -11 2 -11 -4z"/>
<path d="M1807 1384 c-11 -11 5 -34 25 -34 14 0 18 -5 14 -16 -5 -12 -2 -15
10 -10 8 3 18 6 20 6 2 0 4 7 4 15 0 8 5 15 11 15 6 0 9 5 7 11 -5 15 -58 21
-58 7 0 -7 -4 -7 -13 1 -8 6 -16 8 -20 5z"/>
<path d="M3037 1362 c-16 -17 -15 -21 3 -57 19 -37 20 -37 20 -12 0 24 2 26
25 17 32 -12 34 6 4 44 -24 31 -31 32 -52 8z"/>
<path d="M1755 1360 c3 -5 8 -10 11 -10 2 0 4 5 4 10 0 6 -5 10 -11 10 -5 0
-7 -4 -4 -10z"/>
<path d="M1805 1320 c3 -5 8 -10 11 -10 2 0 4 5 4 10 0 6 -5 10 -11 10 -5 0
-7 -4 -4 -10z"/>
<path d="M1510 1295 c0 -8 5 -15 10 -15 6 0 10 7 10 15 0 8 -4 15 -10 15 -5 0
-10 -7 -10 -15z"/>
<path d="M3176 1293 c-9 -9 -7 -33 3 -33 12 0 22 28 12 34 -5 3 -11 3 -15 -1z"/>
<path d="M3120 1281 c0 -6 5 -13 10 -16 6 -3 10 1 10 9 0 9 -4 16 -10 16 -5 0
-10 -4 -10 -9z"/>
<path d="M1580 1265 c-8 -9 -8 -15 -2 -15 12 0 26 19 19 26 -2 2 -10 -2 -17
-11z"/>
<path d="M1766 1241 c-20 -22 -20 -31 -1 -31 9 0 12 6 9 15 -4 8 -2 15 3 15 5
0 9 -11 9 -24 0 -14 -3 -23 -7 -20 -4 2 -9 -3 -13 -11 -3 -8 -2 -15 2 -15 4 0
17 -3 29 -6 18 -5 25 -1 32 17 12 33 13 44 1 44 -5 0 -18 8 -29 17 -18 15 -20
15 -35 -1z"/>
<path d="M3330 1225 c-15 -18 -5 -36 20 -32 23 4 33 13 36 32 3 20 -40 20 -56
0z"/>
<path d="M1120 1215 c-10 -12 -10 -15 4 -15 9 0 16 7 16 15 0 8 -2 15 -4 15
-2 0 -9 -7 -16 -15z"/>
<path d="M1515 1210 c3 -5 11 -10 16 -10 6 0 7 5 4 10 -3 6 -11 10 -16 10 -6
0 -7 -4 -4 -10z"/>
<path d="M3477 1184 c-4 -4 -7 -14 -7 -23 0 -11 3 -12 11 -4 6 6 10 16 7 23
-2 6 -7 8 -11 4z"/>
<path d="M1858 1173 c-19 -5 -25 -38 -8 -48 6 -3 10 -1 10 6 0 6 7 17 17 24
18 13 7 24 -19 18z"/>
<path d="M3780 1147 c0 -26 26 -40 51 -26 24 12 18 19 -28 33 -17 5 -23 3 -23
-7z"/>
<path d="M1861 1074 c0 -11 3 -14 6 -6 3 7 2 16 -1 19 -3 4 -6 -2 -5 -13z"/>
<path d="M3517 1007 c-7 -20 18 -43 28 -27 4 7 1 19 -7 27 -14 13 -16 13 -21
0z"/>
</g>
</svg>
